<?xml version="1.0" encoding="UTF-8"?><svg id="Layer_1" xmlns="http://www.w3.org/2000/svg" width="128" height="128" viewBox="0 0 128 128"><defs><style>.cls-1{fill:#fff;}</style></defs><path class="cls-1" d="M123.38,0H4.62v100.54c0,7.88,5.18,14.84,12.77,17.18l46.61,10.28,46.61-10.28c7.6-2.34,12.77-9.3,12.77-17.18V0Z"/><path d="M108.92,16.18l-4.96,6.79.13,80.52h-32.5v-.78l7.05-6.79-.13-61.6h-.78l-21.8,53.64h-1.44l-25.71-52.46h-.65v8.74c0,13.66,2.02,25.14,6.07,34.45,4.05,9.31,10.25,17.36,18.6,24.14v.65h-27.54V29.23l-7.31-13.05v-.78l28.19-.26,18.92,39.93h.65l15.92-39.67h27.27v.78Z"/></svg>