<?xml version="1.0" encoding="UTF-8"?><svg id="Layer_1" xmlns="http://www.w3.org/2000/svg" width="128" height="128" viewBox="0 0 128 128"><defs><style>.cls-1{fill:#fff;}</style></defs><path d="M78.6,127c-7.2.9-22,1.1-29.2,0C22.9,123.1,0,105.9,0,78.6V0h128v78.6c0,27.3-22.2,45-49.4,48.4Z"/><path class="cls-1" d="M61.4,18.7c-12.1.2-20.5,10.3-21.8,22.1-.7,6.7-.9,14.3-.9,22.2h0c0,7.9.2,15.7.9,22.4,1.3,11.8,9.7,21.9,21.8,22.1V18.7Z"/><path class="cls-1" d="M66.6,107.6c12.1-.2,20.5-10.3,21.8-22.1.7-6.7.9-14.3.9-22.2h0c0-7.9-.2-15.7-.9-22.4-1.3-11.8-9.7-21.9-21.8-22.1v88.9Z"/></svg>