<?xml version="1.0" encoding="UTF-8"?><svg id="Layer_1" xmlns="http://www.w3.org/2000/svg" width="240" height="160" viewBox="0 0 240 160"><defs><style>.cls-1{fill:#fff;}</style></defs><path d="M120,159.1c-57.4,0-103.9-22.2-107.4-48.6S4.4,29.8,1.7,0h236.7c-2.7,28.8-6.7,84-10.9,110.5-3.9,24.5-45.5,48.6-107.4,48.6Z"/><path class="cls-1" d="M173.9,31c-11.7.2-19.9,10-21.2,21.5-.7,6.5-.9,13.9-.9,21.5h0c0,7.7.2,15.3.9,21.8,1.2,11.4,9.4,21.3,21.2,21.5V31Z"/><path class="cls-1" d="M176,117.3c11.7-.2,19.9-10,21.2-21.5.7-6.5.9-13.9.9-21.5h0c0-7.7-.2-15.3-.9-21.8-1.2-11.4-9.4-21.3-21.2-21.5v86.3Z"/><path class="cls-1" d="M64,31c-11.7.2-19.9,10-21.2,21.5-.7,6.5-.9,13.9-.9,21.5h0c0,7.7.2,15.3.9,21.8,1.2,11.4,9.4,21.3,21.2,21.5V31Z"/><path class="cls-1" d="M66.1,117.3c11.7-.2,19.9-10,21.2-21.5.7-6.5.9-13.9.9-21.5h0c0-7.7-.2-15.3-.9-21.8-1.2-11.4-9.4-21.3-21.2-21.5v86.3Z"/><path class="cls-1" d="M124.1,74.1c9.6-.6,17.5-4.3,22.3-21.5l6-21.5c-13.2,0-23.9,0-29.9,21.5l-6,21.5,6,21.5c6,21.5,16.7,21.5,29.9,21.5l-6-21.4c-4.7-17.2-12.5-21-22.2-21.6Z"/><path class="cls-1" d="M94.9,117.3c11.9,0,21.5-9.6,21.5-21.5,0,0,0,0,0,0v-43c0-11.9-9.3-21.5-21.5-21.5-.4,13.6-.9,26.5-.9,42.2,0,18.1.3,27.3.8,43.9Z"/></svg>