<?xml version="1.0" encoding="UTF-8"?><svg id="Isolation_Mode" xmlns="http://www.w3.org/2000/svg" width="900" height="900" viewBox="0 0 900 900"><defs><style>.cls-1{fill:none;stroke:#156b67;stroke-linecap:round;stroke-miterlimit:10;stroke-width:.5px;}</style></defs><circle class="cls-1" cx="193.3" cy="450" r="169.9"/><circle class="cls-1" cx="706.7" cy="450" r="169.9"/><circle class="cls-1" cx="193.4" cy="459" r="169.9"/><circle class="cls-1" cx="706.6" cy="441" r="169.9"/><circle class="cls-1" cx="193.9" cy="467.9" r="169.9"/><circle class="cls-1" cx="706.1" cy="432.1" r="169.9"/><circle class="cls-1" cx="194.7" cy="476.8" r="169.9"/><circle class="cls-1" cx="705.3" cy="423.2" r="169.9"/><circle class="cls-1" cx="195.8" cy="485.7" r="169.9"/><circle class="cls-1" cx="704.2" cy="414.3" r="169.9"/><circle class="cls-1" cx="197.2" cy="494.6" r="169.9"/><circle class="cls-1" cx="702.8" cy="405.4" r="169.9"/><circle class="cls-1" cx="198.9" cy="503.4" r="169.9"/><circle class="cls-1" cx="701.1" cy="396.6" r="169.9"/><circle class="cls-1" cx="200.9" cy="512.1" r="169.9"/><circle class="cls-1" cx="699.1" cy="387.9" r="169.9"/><circle class="cls-1" cx="203.2" cy="520.8" r="169.9"/><circle class="cls-1" cx="696.8" cy="379.2" r="169.9"/><circle class="cls-1" cx="205.8" cy="529.3" r="169.9"/><circle class="cls-1" cx="694.2" cy="370.7" r="169.9"/><circle class="cls-1" cx="208.8" cy="537.8" r="169.9"/><circle class="cls-1" cx="691.2" cy="362.2" r="169.9"/><circle class="cls-1" cx="212" cy="546.2" r="169.9"/><circle class="cls-1" cx="688" cy="353.8" r="169.9"/><circle class="cls-1" cx="215.5" cy="554.4" r="169.9"/><circle class="cls-1" cx="684.5" cy="345.6" r="169.9"/><circle class="cls-1" cx="219.3" cy="562.5" r="169.9"/><circle class="cls-1" cx="680.7" cy="337.5" r="169.9"/><circle class="cls-1" cx="223.3" cy="570.5" r="169.9"/><circle class="cls-1" cx="676.7" cy="329.5" r="169.9"/><circle class="cls-1" cx="227.7" cy="578.4" r="169.9"/><circle class="cls-1" cx="672.3" cy="321.6" r="169.9"/><circle class="cls-1" cx="232.3" cy="586" r="169.9"/><circle class="cls-1" cx="667.7" cy="314" r="169.9"/><circle class="cls-1" cx="237.2" cy="593.6" r="169.9"/><circle class="cls-1" cx="662.8" cy="306.4" r="169.9"/><circle class="cls-1" cx="242.3" cy="600.9" r="169.9"/><circle class="cls-1" cx="657.7" cy="299.1" r="169.9"/><circle class="cls-1" cx="247.7" cy="608.1" r="169.9"/><circle class="cls-1" cx="652.3" cy="291.9" r="169.9"/><circle class="cls-1" cx="253.3" cy="615" r="169.9"/><circle class="cls-1" cx="646.7" cy="285" r="169.9"/><circle class="cls-1" cx="259.2" cy="621.8" r="169.9"/><circle class="cls-1" cx="640.8" cy="278.2" r="169.9"/><circle class="cls-1" cx="265.3" cy="628.3" r="169.9"/><circle class="cls-1" cx="634.7" cy="271.7" r="169.9"/><circle class="cls-1" cx="271.7" cy="634.7" r="169.9"/><circle class="cls-1" cx="628.3" cy="265.3" r="169.9"/><circle class="cls-1" cx="278.2" cy="640.8" r="169.9"/><circle class="cls-1" cx="621.8" cy="259.2" r="169.9"/><circle class="cls-1" cx="285" cy="646.7" r="169.9"/><circle class="cls-1" cx="615" cy="253.3" r="169.9"/><circle class="cls-1" cx="291.9" cy="652.3" r="169.9"/><circle class="cls-1" cx="608.1" cy="247.7" r="169.9"/><circle class="cls-1" cx="299.1" cy="657.7" r="169.9"/><circle class="cls-1" cx="600.9" cy="242.3" r="169.9"/><circle class="cls-1" cx="306.4" cy="662.8" r="169.9"/><circle class="cls-1" cx="593.6" cy="237.2" r="169.9"/><circle class="cls-1" cx="314" cy="667.7" r="169.9"/><circle class="cls-1" cx="586" cy="232.3" r="169.9"/><circle class="cls-1" cx="321.6" cy="672.3" r="169.9"/><circle class="cls-1" cx="578.4" cy="227.7" r="169.9"/><circle class="cls-1" cx="329.5" cy="676.7" r="169.9"/><circle class="cls-1" cx="570.5" cy="223.3" r="169.9"/><circle class="cls-1" cx="337.5" cy="680.7" r="169.9"/><circle class="cls-1" cx="562.5" cy="219.3" r="169.9"/><circle class="cls-1" cx="345.6" cy="684.5" r="169.9"/><circle class="cls-1" cx="554.4" cy="215.5" r="169.9"/><circle class="cls-1" cx="353.8" cy="688" r="169.9"/><circle class="cls-1" cx="546.2" cy="212" r="169.9"/><circle class="cls-1" cx="362.2" cy="691.2" r="169.9"/><circle class="cls-1" cx="537.8" cy="208.8" r="169.9"/><circle class="cls-1" cx="370.7" cy="694.2" r="169.9"/><circle class="cls-1" cx="529.3" cy="205.8" r="169.9"/><circle class="cls-1" cx="379.2" cy="696.8" r="169.9"/><circle class="cls-1" cx="520.8" cy="203.2" r="169.9"/><circle class="cls-1" cx="387.9" cy="699.1" r="169.9"/><circle class="cls-1" cx="512.1" cy="200.9" r="169.9"/><circle class="cls-1" cx="396.6" cy="701.1" r="169.9"/><circle class="cls-1" cx="503.4" cy="198.9" r="169.9"/><circle class="cls-1" cx="405.4" cy="702.8" r="169.9"/><circle class="cls-1" cx="494.6" cy="197.2" r="169.9"/><circle class="cls-1" cx="414.3" cy="704.2" r="169.9"/><circle class="cls-1" cx="485.7" cy="195.8" r="169.9"/><circle class="cls-1" cx="423.2" cy="705.3" r="169.9"/><circle class="cls-1" cx="476.8" cy="194.7" r="169.9"/><circle class="cls-1" cx="432.1" cy="706.1" r="169.9"/><circle class="cls-1" cx="467.9" cy="193.9" r="169.9"/><circle class="cls-1" cx="441" cy="706.6" r="169.9"/><circle class="cls-1" cx="459" cy="193.4" r="169.9"/><circle class="cls-1" cx="450" cy="706.7" r="169.9"/><circle class="cls-1" cx="450" cy="193.3" r="169.9"/><circle class="cls-1" cx="459" cy="706.6" r="169.9"/><circle class="cls-1" cx="441" cy="193.4" r="169.9"/><circle class="cls-1" cx="467.9" cy="706.1" r="169.9"/><circle class="cls-1" cx="432.1" cy="193.9" r="169.9"/><circle class="cls-1" cx="476.8" cy="705.3" r="169.9"/><circle class="cls-1" cx="423.2" cy="194.7" r="169.9"/><circle class="cls-1" cx="485.7" cy="704.2" r="169.9"/><circle class="cls-1" cx="414.3" cy="195.8" r="169.9"/><circle class="cls-1" cx="494.6" cy="702.8" r="169.9"/><circle class="cls-1" cx="405.4" cy="197.2" r="169.9"/><circle class="cls-1" cx="503.4" cy="701.1" r="169.9"/><circle class="cls-1" cx="396.6" cy="198.9" r="169.9"/><circle class="cls-1" cx="512.1" cy="699.1" r="169.9"/><circle class="cls-1" cx="387.9" cy="200.9" r="169.9"/><circle class="cls-1" cx="520.8" cy="696.8" r="169.9"/><circle class="cls-1" cx="379.2" cy="203.2" r="169.9"/><circle class="cls-1" cx="529.3" cy="694.2" r="169.9"/><circle class="cls-1" cx="370.7" cy="205.8" r="169.9"/><circle class="cls-1" cx="537.8" cy="691.2" r="169.9"/><circle class="cls-1" cx="362.2" cy="208.8" r="169.9"/><circle class="cls-1" cx="546.2" cy="688" r="169.9"/><circle class="cls-1" cx="353.8" cy="212" r="169.9"/><circle class="cls-1" cx="554.4" cy="684.5" r="169.9"/><circle class="cls-1" cx="345.6" cy="215.5" r="169.9"/><circle class="cls-1" cx="562.5" cy="680.7" r="169.9"/><circle class="cls-1" cx="337.5" cy="219.3" r="169.9"/><circle class="cls-1" cx="570.5" cy="676.7" r="169.9"/><circle class="cls-1" cx="329.5" cy="223.3" r="169.9"/><circle class="cls-1" cx="578.4" cy="672.3" r="169.9"/><circle class="cls-1" cx="321.6" cy="227.7" r="169.9"/><circle class="cls-1" cx="586" cy="667.7" r="169.9"/><circle class="cls-1" cx="314" cy="232.3" r="169.9"/><circle class="cls-1" cx="593.6" cy="662.8" r="169.9"/><circle class="cls-1" cx="306.4" cy="237.2" r="169.9"/><circle class="cls-1" cx="600.9" cy="657.7" r="169.9"/><circle class="cls-1" cx="299.1" cy="242.3" r="169.9"/><circle class="cls-1" cx="608.1" cy="652.3" r="169.9"/><circle class="cls-1" cx="291.9" cy="247.7" r="169.9"/><circle class="cls-1" cx="615" cy="646.7" r="169.9"/><circle class="cls-1" cx="285" cy="253.3" r="169.9"/><circle class="cls-1" cx="621.8" cy="640.8" r="169.9"/><circle class="cls-1" cx="278.2" cy="259.2" r="169.9"/><circle class="cls-1" cx="628.3" cy="634.7" r="169.9"/><circle class="cls-1" cx="271.7" cy="265.3" r="169.9"/><circle class="cls-1" cx="634.7" cy="628.3" r="169.9"/><circle class="cls-1" cx="265.3" cy="271.7" r="169.9"/><circle class="cls-1" cx="640.8" cy="621.8" r="169.9"/><circle class="cls-1" cx="259.2" cy="278.2" r="169.9"/><circle class="cls-1" cx="646.7" cy="615" r="169.9"/><circle class="cls-1" cx="253.3" cy="285" r="169.9"/><circle class="cls-1" cx="652.3" cy="608.1" r="169.9"/><circle class="cls-1" cx="247.7" cy="291.9" r="169.9"/><circle class="cls-1" cx="657.7" cy="600.9" r="169.9"/><circle class="cls-1" cx="242.3" cy="299.1" r="169.9"/><circle class="cls-1" cx="662.8" cy="593.6" r="169.9"/><circle class="cls-1" cx="237.2" cy="306.4" r="169.9"/><circle class="cls-1" cx="667.7" cy="586" r="169.9"/><circle class="cls-1" cx="232.3" cy="314" r="169.9"/><circle class="cls-1" cx="672.3" cy="578.4" r="169.9"/><circle class="cls-1" cx="227.7" cy="321.6" r="169.9"/><circle class="cls-1" cx="676.7" cy="570.5" r="169.9"/><circle class="cls-1" cx="223.3" cy="329.5" r="169.9"/><circle class="cls-1" cx="680.7" cy="562.5" r="169.9"/><circle class="cls-1" cx="219.3" cy="337.5" r="169.9"/><circle class="cls-1" cx="684.5" cy="554.4" r="169.9"/><circle class="cls-1" cx="215.5" cy="345.6" r="169.9"/><circle class="cls-1" cx="688" cy="546.2" r="169.9"/><circle class="cls-1" cx="212" cy="353.8" r="169.9"/><circle class="cls-1" cx="691.2" cy="537.8" r="169.9"/><circle class="cls-1" cx="208.8" cy="362.2" r="169.9"/><circle class="cls-1" cx="694.2" cy="529.3" r="169.9"/><circle class="cls-1" cx="205.8" cy="370.7" r="169.9"/><circle class="cls-1" cx="696.8" cy="520.8" r="169.9"/><circle class="cls-1" cx="203.2" cy="379.2" r="169.9"/><circle class="cls-1" cx="699.1" cy="512.1" r="169.9"/><circle class="cls-1" cx="200.9" cy="387.9" r="169.9"/><circle class="cls-1" cx="701.1" cy="503.4" r="169.9"/><circle class="cls-1" cx="198.9" cy="396.6" r="169.9"/><circle class="cls-1" cx="702.8" cy="494.6" r="169.9"/><circle class="cls-1" cx="197.2" cy="405.4" r="169.9"/><circle class="cls-1" cx="704.2" cy="485.7" r="169.9"/><circle class="cls-1" cx="195.8" cy="414.3" r="169.9"/><circle class="cls-1" cx="705.3" cy="476.8" r="169.9"/><circle class="cls-1" cx="194.7" cy="423.2" r="169.9"/><circle class="cls-1" cx="706.1" cy="467.9" r="169.9"/><circle class="cls-1" cx="193.9" cy="432.1" r="169.9"/><circle class="cls-1" cx="706.6" cy="459" r="169.9"/><circle class="cls-1" cx="193.4" cy="441" r="169.9"/></svg>