<?xml version="1.0" encoding="UTF-8"?><svg id="Layer_1" xmlns="http://www.w3.org/2000/svg" width="160" height="100" xmlns:xlink="http://www.w3.org/1999/xlink" viewBox="0 0 160 100"><defs><style>.cls-1{fill:url(#linear-gradient-5);}.cls-2{fill:url(#linear-gradient-4);}.cls-3{fill:url(#linear-gradient-3);}.cls-4{fill:url(#linear-gradient-2);}.cls-5{fill:url(#linear-gradient);}</style><linearGradient id="linear-gradient" x1="50.6" y1="29.19" x2="117.53" y2="67.83" gradientUnits="userSpaceOnUse"><stop offset="0" stop-color="#000"/><stop offset=".16" stop-color="#151616"/><stop offset=".4" stop-color="#303131"/><stop offset=".54" stop-color="#3a3b3b"/><stop offset=".69" stop-color="#2a2b2b"/><stop offset=".98" stop-color="#030303"/><stop offset="1" stop-color="#000"/></linearGradient><linearGradient id="linear-gradient-2" x1="90.46" y1="68.26" x2="106.99" y2="68.26" xlink:href="#linear-gradient"/><linearGradient id="linear-gradient-3" x1="52.64" y1="28.11" x2="92.54" y2="28.11" xlink:href="#linear-gradient"/><linearGradient id="linear-gradient-4" x1="47.96" y1="47.53" x2="112.04" y2="47.53" xlink:href="#linear-gradient"/><linearGradient id="linear-gradient-5" x1="65.29" y1="75.92" x2="111.4" y2="75.92" xlink:href="#linear-gradient"/></defs><path class="cls-5" d="M105,69.98s-.01,0-.02-.01c-.66-.46-10.17-7.14-13.89-9.69l-.63-.03c2.81,2.21,8.48,7.19,10.41,8.83,2.2,1.88,5.9,6.18,3.69,7.11-.06.02-.12.04-.19.06-2.53.47-7.88-.71-14.86-3.38-8.07-3.08-17.54-7.82-19.96-11.92,0,0,24.38-15.11,34.28-21.81,12.64-8.56,7.65-15.48,4.86-17.41-3.45-2.38-9.61-3.31-15.93-3.53.01,0,.03,0,.04,0-.09,0-.15-.01-.17-.01-.04,0-.09,0-.14,0,.02,0,.03,0,.05,0-6.99-.23-14.13.38-17.97.81-1.9.19-20.21,2.37-21.84,6.53-.19.62-.27,1.19,1.38,3.36.27.35,4.5,5.72,10.08,9.18h.51c-4.19-3.21-6.65-6.37-7.23-8.34-.05-.16-.08-.32-.09-.47-.04-.76.16-1.62,1.67-2.09,1.51-.47,9.02-1.2,16.79-.59,7.92.62,13.38,1.87,15.23,3.58l-.03.02c-2.38,1.34-30.04,18.04-37.65,23.25-9.89,6.78-3.78,15.23-1.13,17.43,3.35,2.78,8.21,4.68,12.97,5.99.02,0,.03,0,.05.01,0,0,.02,0,.03,0,0,0-.01,0-.01,0,5.63,1.55,11.09,2.3,13.71,2.73,4.21.69,30.26,5.27,32.26-1.03,1.1-3.46-4.78-7.54-6.26-8.59Z"/><path class="cls-4" d="M104.56,76.2c-.06.02-.12.05-.2.06,0,0,.01,0,.02,0-.01,0-.02,0-.04,0,0,0-.02,0-.02,0,.87-.19,1.45-.42,1.79-.69,0,0,1.85-1.37.16-4.04-.25-.43-1.29-1.56-1.29-1.56,0,0-.01,0-.02-.01-.66-.46-10.17-7.14-13.89-9.69l-.63-.03c2.81,2.21,8.48,7.19,10.41,8.83,2.2,1.88,5.9,6.18,3.69,7.11Z"/><path class="cls-3" d="M64.19,38.08h.51c-4.19-3.21-6.65-6.37-7.23-8.34-.05-.16-.08-.32-.09-.47,0,0,0,0,0,.01-.13-1.12.2-3.18,5.72-5.93,7.38-3.67,25.82-5.15,29.43-5.15-6.99-.23-14.13.38-17.97.81-1.9.19-20.21,2.37-21.84,6.53-.19.62-.27,1.19,1.38,3.36.27.35,4.5,5.72,10.08,9.18Z"/><path class="cls-2" d="M59.98,72.98c-1.14-2.14-1.3-4.97,3.32-8.03.85-.56,3.22-2.07,6.25-3.99,0,0,24.38-15.11,34.28-21.81,12.64-8.56,7.65-15.48,4.86-17.41-3.45-2.38-9.61-3.31-15.93-3.53.81.06,5.2.63,5.59,4.71.25,2.69-4.32,5.46-7.28,7.24l-.03.02c-2.38,1.34-30.04,18.04-37.65,23.25-9.89,6.78-3.78,15.23-1.13,17.43,3.36,2.78,8.23,4.68,12.99,6-2.41-.68-4.32-2.1-5.28-3.88Z"/><path class="cls-1" d="M105,69.98s1.04,1.13,1.29,1.56c1.69,2.67-.16,4.04-.16,4.04-.34.27-.9.49-1.74.67,0,0,0,0,0,0,0,0-.01,0-.02,0-.01,0-.03,0-.04,0,0,0,.02,0,.02,0-.11.03-.24.05-.39.07-5.53.84-36.6,1.08-38.67.54,5.63,1.55,11.09,2.3,13.71,2.73,4.21.69,30.26,5.27,32.26-1.03,1.1-3.46-4.78-7.54-6.26-8.59Z"/></svg>