<?xml version="1.0" encoding="UTF-8"?><svg id="Layer_1" xmlns="http://www.w3.org/2000/svg" width="160" height="100" viewBox="0 0 160 100"><path d="M77.97,35.92l.17-.77-.52-.52-1.46.86-1.03-.34-.52-1.72-.77.09.09.86-.17.17-.52-.77.17-.69-.34-1.2-1.12-.95h-.77l-.69-.95-.6.34.86.95v.34l2.32,3.53-.09,1.12-.34,1.29-.95.69v.52l1.46.69.34.6-.86,1.64.26.34h.52l.26.34.69-.43,1.12-1.81.6-1.38-.17-.34.34-.77h.6l.09.34.52-.26v-.77l.43-.26.09-.77ZM66.09,33.42c0-.43.17-.77.52-.77s.52.26.52.77v2.84c0,.43-.17.77-.52.77s-.52-.26-.52-.77v-2.84ZM63.34,32.04v5.68l1.81,1.72h3.01l1.81-1.72v-5.68l-1.81-1.72h-3.01l-1.81,1.72ZM67.64,50.72l.52-.17v-.43l.6-1.38.52-1.46.69-.6.69.17.34-.09.09-.34-.43-.52.17-.34.69-.86.09-.6.43-.17.43-1.03-.09-.34.09-.34-.09-.17.09-.43-.52-.17-.86.52v-.43l-.26-.17-.17.09v-.09l.09-.26.09-.17-.09-.26-.95.77-.43,1.46-.6.43-.34,1.38-2.58,2.5-.86.26-1.12,1.64-.77,1.81.43.6.86-.26.26.34h.52v.26l.86.09.86-.43.77-.77ZM77.19,48.48c0,.43-.17.77-.52.77s-.52-.26-.52-.77v-2.84c0-.43.17-.77.52-.77s.52.26.52.77v2.84ZM79.94,49.94v-5.68l-1.81-1.72h-3.01l-1.81,1.72v5.68l1.81,1.72h3.01l1.81-1.72ZM64.63,52.01l-.26.09.09.43-.52.6.17.09,1.03-.26.17-.43-.17-.09-.52-.43ZM30.37,51.66h4.82v-21.43h-2.5l-1.64,1.64h-2.75v4.22h2.07v15.58ZM40.1,30.24l-3.01,3.01v15.4l3.01,3.01h5.42l3.01-3.01v-15.4l-3.01-3.01h-5.42ZM43.71,47.02c0,.52-.34.86-.77.86h-.34c-.43,0-.77-.34-.77-.86v-12.05c0-.52.34-.86.77-.86h.34c.43,0,.77.34.77.86v12.05ZM58.77,51.66l3.01-3.01v-15.4l-3.01-3.01h-5.42l-3.01,3.01v15.4l3.01,3.01h5.42ZM55.16,34.88c0-.52.34-.86.77-.86h.34c.43,0,.77.34.77.86v12.05c0,.52-.34.86-.77.86h-.34c-.43,0-.77-.34-.77-.86,0,0,0-12.05,0-12.05ZM85.45,30.24v21.43h4.82v-7.57h3.53l3.01-3.01v-7.83l-3.01-3.01h-8.35ZM91.99,39.53c0,.52-.34.77-.77.77h-.95v-6.2h.95c.43,0,.77.26.77.77v4.65ZM98.36,30.24v18.42l3.01,3.01h5.42l3.01-3.01v-18.42h-4.82v16.78c0,.52-.34.86-.77.86h-.34c-.43,0-.77-.34-.77-.86v-16.78h-4.73ZM122.97,33.25l-3.01-3.01h-8.35v21.43h4.82v-8.18h.95c.43,0,.77.26.77.77v5.34l.26,2.07h4.82l-.26-2.32v-5.85l-2.15-2.07,2.15-2.07v-6.11ZM118.15,38.58c0,.52-.34.77-.77.77h-.95v-5.25h.95c.43,0,.77.26.77.77v3.7ZM124.87,51.66h9.04v-4.13h-4.3v-4.65h3.96v-4.13h-3.96v-4.39h4.3v-4.13h-9.04v21.43ZM34.49,62.8h-.21l-1.6-7.01h-3.68v17.29h3.61v-7.43h.21l1.94,7.43h3.33v-17.29h-3.61v7.01ZM39.56,73.07h7.36v-3.33h-3.47v-3.75h3.19v-3.33h-3.19v-3.54h3.47v-3.33h-7.36v17.29ZM65.94,59.12h3.68l-3.68,10.9v3.05h7.91v-3.33h-3.61l3.61-10.83v-3.12h-7.91v3.33ZM75.1,73.07h7.29v-3.33h-3.4v-3.75h3.12v-3.33h-3.12v-3.54h3.4v-3.33h-7.29v17.29ZM94.82,55.79v17.29h6.94v-3.33h-3.12v-13.95h-3.82ZM119.67,62.8h-.21l-1.6-7.01h-3.68v17.29h3.61v-7.43h.21l1.94,7.43h3.33v-17.29h-3.61v7.01ZM124.74,73.07h6.73l2.43-2.43v-12.43l-2.43-2.43h-6.73v17.29ZM128.63,58.91h.83c.35,0,.62.21.62.62v9.86c0,.42-.28.62-.62.62h-.83v-11.11ZM57.33,63.77h-.21l-.83-7.98h-2.78l-.83,7.98h-.21l-.83-7.98h-3.68l2.22,17.29h3.47l1.04-7.5h.14l.97,7.5h3.54l2.22-17.29h-3.4l-.83,7.98ZM86.07,55.79l-2.78,17.29h3.75l.35-2.78h2.29l.35,2.78h3.89l-2.78-17.29s-5.07,0-5.07,0ZM87.74,67.17l.69-5.62h.14l.69,5.62h-1.53ZM105.44,55.79l-2.78,17.29h3.75l.35-2.78h2.29l.35,2.78h3.89l-2.78-17.29s-5.07,0-5.07,0ZM107.11,67.17l.69-5.62h.14l.69,5.62h-1.53Z"/></svg>