<?xml version="1.0" encoding="UTF-8"?><svg id="Layer_1" xmlns="http://www.w3.org/2000/svg" width="160" height="100" viewBox="0 0 160 100"><path d="M71.62,33.48c-.31.58-.44.88-.62,1.16-6.28,10.2-12.58,20.39-18.84,30.6-.54.88-1.12,1.25-2.17,1.2-1.87-.09-3.75-.03-5.92-.03,1.01-1.64,1.82-2.99,2.65-4.33,1.72-2.76,3.42-5.53,5.18-8.26.41-.64.38-1.09,0-1.72-3.55-5.85-7.06-11.72-10.57-17.58-.19-.31-.36-.64-.63-1.12,2.47-.19,4.81-.36,7.05.39.66.22,1.25.98,1.64,1.63,1.8,2.97,3.53,5.99,5.28,8.99.47.81.95,1.62,1.5,2.58,1.51-2.46,2.92-4.81,4.39-7.14.86-1.37,1.74-2.75,2.73-4.03,1.21-1.58,2.8-2.49,4.89-2.34,1.05.07,2.1.01,3.44.01Z"/><path d="M88.22,66.39c-1.88,0-3.35.08-4.81-.02-1.33-.09-2-.81-2.24-2.16-.12-.66-.18-1.34-.25-1.87-1.12.91-2.17,2.1-3.48,2.79-4.24,2.23-8.6,1.98-12.67-.35-3.88-2.23-3.84-8.12-.12-11.02,2.22-1.74,4.83-2.49,7.57-2.74,2.62-.24,5.27-.26,7.91-.38.52-2.76-1.65-4.6-4.08-4.82-3.59-.32-7.01.11-10.1,2.14-.08.05-.19.04-.49.08.89-1.43,1.52-2.9,2.56-3.98.72-.75,1.95-1.13,3.03-1.41,2.93-.76,5.92-.83,8.88-.23,4.49.92,6.15,2.91,6.27,7.52.08,3.25,0,6.51.02,9.76,0,2.31-.07,4.65,2.01,6.69ZM80.35,53.68c-2.25.12-4.3.07-6.29.39-1.44.24-2.9.82-4.18,1.54-1.29.72-1.58,2.13-1.44,3.57.13,1.32.75,2.34,2.03,2.73,2.55.79,5.14.88,7.34-.83,2.31-1.8,2.51-4.47,2.54-7.4Z"/><path d="M127.26,54.79h-18.09c.56-1.63,1.6-2.66,3.1-3.1,1.03-.31,2.15-.39,3.24-.42,2.07-.06,4.14-.02,6.2-.02.28-2.58-1.66-4.84-4.4-5.42-5.6-1.2-8.49,2.69-8.82,6.88-.42,5.3,2.38,9.04,7.12,9.59,2.8.33,5.51-.12,8.04-1.4,1.13-.58,2.2-1.28,3.3-1.92.4,2.01-.69,4.52-2.38,5.49-5.33,3.05-13.63,2.52-17.96-1.26-3.92-3.42-4.83-7.8-3.58-12.68,1.21-4.67,4.39-7.36,9.03-8.37,2.32-.5,4.66-.46,6.97.1,4.59,1.1,6.94,4.28,7.82,8.71.24,1.21.27,2.46.42,3.83Z"/><path d="M129.49,58.86c1.73,1.03,3.32,2.12,5.03,2.95,2.18,1.05,4.47.92,6.74.14,1.06-.37,1.74-1.1,1.81-2.24.06-1.11-.58-1.93-1.56-2.28-1.77-.63-3.62-1.06-5.4-1.66-1.6-.54-3.27-1.01-4.72-1.85-3.59-2.07-3.9-7.05-.72-9.73,1.65-1.39,3.61-2.07,5.7-2.27,3.54-.34,7.01.08,10.34,1.44.62.25.88.57.85,1.25-.05,1.35-.01,2.69-.01,4.15-1.25-.76-2.32-1.5-3.48-2.09-2.16-1.1-4.46-1.36-6.83-.76-.51.13-1.01.32-1.46.59-1.44.87-1.5,2.75,0,3.47,1.38.66,2.92.98,4.38,1.45,1.86.6,3.83,1,5.57,1.84,4.44,2.15,4.77,8.05.72,10.89-1.62,1.14-3.44,1.75-5.36,2-4.09.52-7.97-.15-11.56-2.31-.67-.4-.86-.81-.69-1.55.27-1.16.45-2.35.65-3.44Z"/><path d="M90.25,46.57h-3.08v-3.75h3.1c0-1.08.04-2.05-.01-3.01-.04-.72.22-1.09.93-1.3,1.69-.49,3.37-1.05,5.21-1.64v5.9h6.72c.22,2.36-1.43,3.68-3.44,3.72-1.05.03-2.1,0-3.24,0,0,3.28,0,6.34,0,9.4,0,1.21-.06,2.44.11,3.62.37,2.52,2.08,3.45,4.45,2.52.28-.11.55-.23.91-.37.7.88,1.39,1.76,2.14,2.71-.99,1.14-2.29,1.82-3.69,2-1.51.2-3.12.23-4.61-.03-3.15-.55-4.9-2.5-5.23-5.7-.21-2.06-.22-4.15-.25-6.23-.04-2.57,0-5.14,0-7.86Z"/><path d="M41.67,46.69c-.96,1.6-1.86,3.24-2.89,4.8-2.91,4.37-6.44,8.09-11.3,10.34-2.55,1.18-5.23,1.65-8.04,1.56-.47-.02-1.07.25-1.42.59-1.04.99-1.98,2.07-2.95,3.13-.51.56-1.04.7-1.93.06,1.33-1.5,2.65-2.97,3.93-4.46.41-.47.84-.98,1.07-1.54,3.53-8.56,10.03-13.13,19.09-14.3,1.41-.18,2.82-.31,4.23-.47l.21.3Z"/><path d="M16.44,57.57c-.5-5.92-.54-11.62,2.48-16.89,1.46-2.55,3.51-4.49,6.08-5.95,2.63,8.6-.65,18.31-8.56,22.84Z"/><path d="M7.62,39.96c7.26,5.56,8.95,15.2,6.06,20.93-5.62-4.81-9.16-13.77-6.06-20.93Z"/><path d="M154.68,63.91c0,1.3-1.02,2.32-2.35,2.32s-2.36-1.02-2.36-2.32,1.05-2.29,2.36-2.29,2.35,1.02,2.35,2.29ZM150.56,63.91c0,1.02.76,1.83,1.79,1.83s1.75-.81,1.75-1.82-.74-1.85-1.76-1.85-1.78.83-1.78,1.83ZM151.97,65.12h-.53v-2.29c.21-.04.5-.07.88-.07.43,0,.63.07.8.17.13.1.22.28.22.5,0,.25-.2.45-.47.53v.03c.22.08.35.25.42.56.07.35.11.49.17.57h-.57c-.07-.08-.11-.29-.18-.56-.04-.25-.18-.36-.47-.36h-.25v.92ZM151.98,63.82h.25c.29,0,.53-.1.53-.34,0-.21-.15-.35-.49-.35-.14,0-.24.01-.29.03v.66Z"/></svg>