<?xml version="1.0" encoding="UTF-8"?><svg id="Layer_1" xmlns="http://www.w3.org/2000/svg" width="160" height="100" viewBox="0 0 160 100"><path d="M126.29,41.85c-6.91,0-13.14,5.44-13.14,12.3v11.64h6.25v-11.52c0-4.2,2.93-6.79,7.13-6.79s6.64,2.68,6.64,6.7v11.61h6.25v-11.64c0-6.87-6.18-12.3-13.14-12.3M27.08,51.54c1.07-2.87,3.99-4.47,7.39-4.47s5.89,1.6,6.81,4.47h-14.2ZM34.47,41.85c-7.68,0-13.89,4.87-13.89,12.19s6.21,12.24,13.89,12.24c5.68,0,10.47-2.69,12.55-7.1h-7.34c-1.27,1.22-3.09,1.88-5.21,1.88-3.7,0-6.83-1.89-7.62-5.27h21.17c.08-.56.12-1.14.12-1.74,0-.87-.08-1.7-.25-2.5-1.21-5.91-6.69-9.69-13.42-9.69M73.44,54.04c0,4.47-4.05,7.01-8.25,7.01s-8.29-2.55-8.29-7.01,4-6.97,8.29-6.97,8.24,2.55,8.25,6.97h0ZM73.44,43.9c-2.37-1.32-5.22-2.06-8.22-2.06-7.8,0-14.57,4.87-14.57,12.19s6.77,12.24,14.57,12.24,14.46-4.86,14.48-12.22h0v-20.35h-6.25v10.19ZM89.13,51.54c1.07-2.87,3.99-4.47,7.39-4.47s5.89,1.6,6.81,4.47h-14.2ZM96.52,41.85c-7.68,0-13.89,4.87-13.89,12.19s6.21,12.24,13.89,12.24c5.68,0,10.47-2.69,12.55-7.1h-7.34c-1.27,1.22-3.09,1.88-5.21,1.88-3.69,0-6.83-1.89-7.62-5.27h21.17c.08-.56.12-1.14.12-1.74,0-.87-.09-1.7-.25-2.5-1.21-5.91-6.69-9.69-13.42-9.69"/></svg>