<?xml version="1.0" encoding="UTF-8"?><svg id="Layer_1" xmlns="http://www.w3.org/2000/svg" width="160" height="100" viewBox="0 0 160 100"><path d="M56.53,57.38v17.92h-11.47v-16.68c0-2.79-1.49-4.15-3.84-4.15-2.79,0-4.22,1.86-4.22,4.9v15.93h-11.47v-31h11.47v3.04c1.86-2.54,4.71-3.91,8.31-3.91,6.45,0,11.22,4.34,11.22,13.95"/><polygon points="134.47 44.3 125.48 75.3 113.82 75.3 109.98 60.73 106.13 75.3 94.48 75.3 85.49 44.3 97.58 44.3 101.17 61.47 105.64 44.3 114.32 44.3 118.78 61.47 122.38 44.3 134.47 44.3"/><path d="M55.98,59.8c0-9.3,7.38-16.37,16.68-16.37s16.68,7.07,16.68,16.37-7.38,16.37-16.68,16.37-16.68-7.07-16.68-16.37M77.86,59.8c0-3.22-2.17-5.46-5.21-5.46s-5.21,2.23-5.21,5.46,2.17,5.46,5.21,5.46,5.21-2.23,5.21-5.46"/><polygon points="69.03 23.83 69.03 28.12 65.32 28.12 65.32 23.83 61.25 23.83 61.25 35.99 65.32 35.99 65.32 31.63 69.03 31.63 69.03 35.99 73.1 35.99 73.1 23.83 69.03 23.83"/><path d="M87.68,32.3v-.04c0-1.25-.38-2.15-1.11-2.88-.85-.85-2.22-1.39-4.38-1.39h-5.94v12.16h4.07v-3.47h.87l2.29,3.47h4.64l-2.83-4.14c1.48-.71,2.4-1.94,2.4-3.72M83.63,32.6c0,.75-.59,1.18-1.56,1.18h-1.75v-2.38h1.77c.94,0,1.55.38,1.55,1.16v.04Z"/><polygon points="54.23 27.94 49.86 27.94 49.86 31.94 45.79 31.94 45.79 35.97 49.86 35.97 49.86 40.16 54.23 40.16 54.23 35.97 58.3 35.97 58.3 31.94 54.23 31.94 54.23 27.94"/><polygon points="107.75 36.82 107.75 35.5 113.69 35.5 113.69 32.56 107.75 32.56 107.75 31.33 114.12 31.33 114.12 27.99 103.75 27.99 103.75 40.16 114.21 40.16 114.21 36.82 107.75 36.82"/><polygon points="100.7 32.12 90.25 32.12 90.25 32.66 90.25 35.99 100.7 35.99 100.7 32.66 100.7 32.12"/><polygon points="90.24 23.83 90.24 27.17 90.24 27.71 100.7 27.71 100.7 27.17 100.7 23.83 90.24 23.83"/></svg>