<?xml version="1.0" encoding="UTF-8"?><svg id="Layer_1" xmlns="http://www.w3.org/2000/svg" width="160" height="100" viewBox="0 0 160 100"><defs><style>.cls-1{fill-rule:evenodd;}</style></defs><g id="layer1"><g id="g2688"><path id="path2416" class="cls-1" d="M143.74,35.71c-2.31,0-4.09,1.79-4.09,4.09s1.78,4.09,4.09,4.09,4.09-1.79,4.09-4.09-1.78-4.09-4.09-4.09ZM143.74,36.29c1.98,0,3.45,1.55,3.45,3.5s-1.47,3.5-3.45,3.5-3.45-1.55-3.45-3.5,1.47-3.5,3.45-3.5ZM142.84,40.06h.98l1.33,2.1h.68l-1.41-2.1c.64-.11,1.19-.48,1.19-1.32s-.47-1.31-1.54-1.31h-1.81v4.72h.58s0-2.1,0-2.1ZM142.84,39.57v-1.64h1.07c.57,0,1.12.15,1.12.81,0,.8-.7.82-1.42.82h-.77"/><path id="path2424" class="cls-1" d="M124.01,37.4h8.21l-7.4,20.33h17.39l-2.39,6.56h-25.6l9.79-26.89h0ZM92.68,37.4h7.85l-3.46,9.5h9.77l3.46-9.5h8.08l-9.79,26.89h-8.07l4.02-11.06h-9.77l-4.02,11.06h-7.85l9.79-26.89ZM68.94,64.29h8.21l9.79-26.89h-8.21l-9.79,26.89ZM49.77,64.29h8.17l7.4-20.33h8.49l2.39-6.56h-25.05l-2.39,6.56h8.4l-7.4,20.33h0ZM48.91,37.4h-19.55c-2.79,0-4.64,1.79-5.51,4.18l-2.59,7.11c-1.15,3.17.47,5.51,3.59,5.51h10.19c.41,0,.72.41.55.87l-.65,1.79c-.18.49-.78.87-1.19.87h-16.01l-2.39,6.56h20.65c2.28,0,4.28-1.06,5.47-4.31l2.46-6.76c1.17-3.2-.52-5.5-3.37-5.5h-10.23c-.57,0-.77-.41-.58-.92l.65-1.79c.22-.6.67-1.06,1.39-1.06h14.73l2.39-6.56"/></g></g></svg>