<?xml version="1.0" encoding="UTF-8"?><svg id="Layer_1" xmlns="http://www.w3.org/2000/svg" width="125" height="110.5" viewBox="0 0 125 110.5"><path d="M42.5,56.1c-7.1-8.3-11-13.6-14.8-13.6-7.4,0-17.4,8.5-17.4,20.8.3,9.4,4.3,18.3,11.1,24.8,7.7,7.9,18.2,12.3,29.2,12.3,9.9,0,19.5-3.3,27.2-9.6-12.5-10.8-24.2-22.5-35.2-34.9M44.1,110c-24.8,0-42.3-16.8-42.3-40.4s9.6-26.9,25.8-31.5c-4.1-4.8-6.5-10.8-6.8-17.1C20.8,9,30.5.4,44.4.4c5.8.2,11.5,1.5,16.8,3.7,1.2,0,2.5-1.4,3.5-1.4s1.4,1.2,1.5,3.9l.6,13.3v.5c0,1.7-.8,2.6-1.7,2.6-2.2,0-2.2-3.7-5-7.7-3.8-6.6-10.7-10.7-18.2-11-6.4-.4-11.9,4.5-12.3,10.9,0,.4,0,.9,0,1.3,0,10.2,18.8,30.4,55.2,64.8,2.3-2.9,4-6.2,5-9.8,2.1-9.1-.8-11.2-6.8-13.8-3.7-1.6-8.3-.6-8.3-3.2s1.4-1.9,4-1.9,7.6.7,13.6.6c8.1-.1,16.4-1.6,16.7.8.4,4.5-11.1,2.4-12.3,9.3-1,6,.4,9.7-7.5,21.8,13.9,12,22.4,18.7,27.2,18.7,1.8-.2,3.5-.6,5.2-1.1.9,0,1.5.7,1.5,1.5,0,2.2-4.8,5.4-12.4,5.4s-17.4-5.7-29.2-15.3c-9.8,10.2-23.5,15.9-37.7,15.6"/></svg>