<?xml version="1.0" encoding="UTF-8"?><svg id="Layer_1" xmlns="http://www.w3.org/2000/svg" width="160" height="100" viewBox="0 0 160 100"><path d="M67.07,51.16v12.26h-6.46v-12.31l-11.52-22.1h7.16l6.31,12.87c.47.91.88,1.94,1.25,3.08h.1c.23-.84.63-1.87,1.2-3.08l6.31-12.87h7.26l-11.62,22.15Z"/><path d="M76.8,64.89c-.93-1.75-1.44-3.51-1.5-5.3h6.61c.17,1.68.81,3.03,1.93,4.06,1.12,1.03,2.6,1.54,4.43,1.54,1.54,0,2.81-.38,3.83-1.14,1.02-.76,1.53-1.72,1.53-2.9,0-.98-.31-1.77-.93-2.4-.62-.62-1.38-1.13-2.28-1.51-.9-.39-2.19-.85-3.86-1.39-2.24-.67-4.08-1.35-5.51-2.04-1.44-.69-2.66-1.71-3.68-3.05-1.02-1.34-1.53-3.11-1.53-5.3,0-1.85.48-3.53,1.43-5.05.95-1.51,2.3-2.71,4.06-3.58,1.75-.88,3.8-1.31,6.14-1.31,2.54,0,4.7.52,6.49,1.56,1.79,1.04,3.14,2.39,4.06,4.04.92,1.65,1.41,3.38,1.48,5.2h-6.61c-.1-1.45-.63-2.65-1.58-3.61-.95-.96-2.23-1.44-3.83-1.44s-2.83.4-3.78,1.19c-.95.79-1.43,1.79-1.43,3,0,.88.29,1.61.88,2.19.58.59,1.31,1.05,2.18,1.39.87.34,2.1.76,3.71,1.26,2.3.71,4.19,1.41,5.66,2.09,1.47.69,2.73,1.74,3.78,3.15,1.05,1.41,1.58,3.28,1.58,5.6,0,1.88-.55,3.57-1.65,5.07-1.1,1.5-2.55,2.67-4.36,3.51-1.8.84-3.72,1.26-5.76,1.26-2.84,0-5.23-.58-7.16-1.74-1.94-1.16-3.37-2.62-4.31-4.36Z"/><path d="M102.65,59.99c0-1.14.4-2.1,1.2-2.88.8-.77,1.77-1.16,2.91-1.16s2.15.39,2.96,1.16c.8.77,1.2,1.73,1.2,2.88s-.4,2.1-1.2,2.88c-.8.77-1.79,1.16-2.96,1.16s-2.1-.39-2.91-1.16c-.8-.77-1.2-1.73-1.2-2.88Z"/></svg>