<?xml version="1.0" encoding="UTF-8"?><svg id="Layer_1" xmlns="http://www.w3.org/2000/svg" width="160" height="100" viewBox="0 0 160 100"><path d="M65.24,66.42l-9.93-31.2c-1.39-4.77-3.78-6.1-7.45-6.1h-18.47c1.43.59,2.43,4.41,2.43,4.41l8.95,31.34c1.02,3.95,4.22,6.01,7.89,6.01h19.59c-1.43-.27-3.01-4.46-3.01-4.46"/><path d="M94.75,66.42l9.94-31.2c1.39-4.77,3.77-6.1,7.46-6.1h18.45c-1.44.59-2.43,4.41-2.43,4.41l-8.93,31.34c-1.04,3.95-4.23,6.01-7.92,6.01h-19.54c1.43-.27,2.95-4.46,2.95-4.46"/><rect x="69.2" y="29.35" width="21.74" height="41.48"/></svg>