<?xml version="1.0" encoding="UTF-8"?><svg id="Layer_1" xmlns="http://www.w3.org/2000/svg" width="160" height="100" viewBox="0 0 160 100"><path d="M49.02,40.98v22.19h-5.53v-22.19h-11.85v-4.77h29.22v4.77h-11.85Z"/><path d="M71.78,48.76c-.9-.22-1.31-.3-2.35-.3-4.33,0-7.21,1.77-7.21,6.31v8.41h-5.23v-19.76h5.23v3.49c1.68-2.59,4.19-3.61,7.4-3.61.9,0,1.6.11,2.17.26v5.2h0Z"/><path d="M94.88,63.17h-5.23v-2.48c-1.45,1.66-3.82,2.89-7.07,2.89-5.2,0-8.52-3.5-8.52-8.97v-11.19h5.23v10.29c0,3.34,1.6,5.26,4.94,5.26s5.42-2.1,5.42-5.6v-9.95h5.23v19.75Z"/><path d="M114.87,55.7l4.45,1.92c-1.31,3.27-5.31,5.97-10.5,5.97-6.76,0-11.62-4.17-11.62-10.29s4.78-10.25,11.59-10.25,10.87,4.43,10.87,10.07v1.66h-17.41c.64,2.85,3.21,4.54,6.58,4.54,2.92,0,5.16-1.43,6.06-3.61h0ZM102.42,51.19h12.07c-.3-1.84-2.5-3.94-5.9-3.94-2.88,0-5.34,1.35-6.17,3.94h0Z"/><path d="M121.02,57.86l5.97-1.4,1.37,5.92-5.97,1.4-1.37-5.92Z"/></svg>