<?xml version="1.0" encoding="UTF-8"?><svg id="Layer_1" xmlns="http://www.w3.org/2000/svg" width="160" height="100" viewBox="0 0 160 100"><polygon points="91.67 59.27 90.46 54.49 90.39 54.49 89.38 59.27 88.23 59.27 89.45 53.54 91.27 53.54 92.55 58.06 92.55 58.06 93.49 53.54 94.64 53.54 93.43 59.27 91.67 59.27"/><polygon points="95.58 53.54 99.43 53.54 99.22 54.49 96.6 54.49 96.33 55.84 98.82 55.84 98.62 56.78 96.12 56.78 95.79 58.33 98.48 58.33 98.28 59.27 94.37 59.27 95.58 53.54"/><polygon points="103.34 53.54 104.75 53.54 104.82 57.86 104.82 57.86 106.71 53.54 107.85 53.54 105.16 59.27 103.81 59.27 103.74 54.89 103.67 54.89 101.65 59.27 100.24 59.27 100.1 53.54 101.31 53.54 101.31 57.86 101.31 57.86 103.34 53.54"/><polygon points="109.41 58.33 113.05 54.49 110.35 54.49 110.55 53.54 114.73 53.54 114.53 54.49 110.89 58.33 113.79 58.33 113.59 59.27 109.2 59.27 109.41 58.33"/><polygon points="115.47 53.54 119.32 53.54 119.11 54.49 116.55 54.49 116.22 55.84 118.71 55.84 118.51 56.78 116.01 56.78 115.68 58.33 118.44 58.33 118.24 59.27 114.26 59.27 115.47 53.54"/><path d="M122.82,57.12l-.27-2.43h0l-1.35,2.43h1.62ZM118.78,59.27l3.3-5.73h1.48l.81,5.73h-1.21l-.13-1.21h-2.29l-.67,1.21h-1.28Z"/><polygon points="124.98 59.27 126.19 53.54 127.41 53.54 126.4 58.33 128.89 58.33 128.69 59.27 124.98 59.27"/><path d="M133,57.12l-.27-2.43h0l-1.35,2.43h1.62ZM128.96,59.27l3.3-5.73h1.48l.81,5.73h-1.21l-.13-1.21h-2.29l-.67,1.21h-1.28Z"/><polygon points="138.53 59.27 137.32 54.49 137.25 54.49 136.24 59.27 135.09 59.27 136.31 53.54 138.19 53.54 139.41 58.06 139.41 58.06 140.35 53.54 141.5 53.54 140.29 59.27 138.53 59.27"/><path d="M142.71,58.33h.61c1.48,0,1.89-1.01,2.09-1.89.2-.94.2-1.96-1.28-1.89h-.61l-.81,3.84v-.07ZM142.51,53.54h1.96c1.82,0,2.7.88,2.29,2.9s-1.75,2.9-3.51,2.9h-1.96l1.21-5.73v-.07Z"/><path d="M148.65,63.93c.2,0,.34,0,.34-.27s-.13-.2-.34-.2h-.27v.47h.27ZM148.38,64.74h-.2v-1.42h.54c.34,0,.54.13.54.4s-.13.34-.4.4l.4.61h-.27l-.4-.61h-.27v.61h.07ZM148.65,65.07c.54,0,1.01-.47,1.01-1.08s-.47-1.01-1.01-1.01-1.01.47-1.01,1.01.47,1.08,1.01,1.08M147.36,63.99c0-.74.61-1.28,1.28-1.28s1.28.54,1.28,1.28-.61,1.28-1.28,1.28-1.28-.54-1.28-1.28"/><path d="M41.51,57.18l-1.01.81-14.97-7.35s8.09,1.62,8.63,1.69.61-.47.61-.47l6.74,5.33Z"/><path d="M37.74,50.11c-.54-.13-7.28-2.43-7.28-2.43l12.74,8.23,1.08-.81-5.8-5.46s-.13.54-.67.4"/><path d="M42.19,47.75l4.92,5.46-1.08.67-11.33-8.29s6.27,2.36,6.74,2.49.67-.34.67-.34"/><path d="M46.37,46.13l3.71,5.33-1.21.74-9.3-8.36s5.53,2.36,6.07,2.56c.61.13.74-.27.74-.27"/><path d="M50.61,44.78l2.7,4.99-1.28.61-7.62-7.96s4.79,2.29,5.33,2.56c.54.27.81-.2.81-.2"/><path d="M55,43.84l2.22,4.32-1.42.54-6.47-7.21s4.38,2.29,4.85,2.49c.47.2.81-.13.81-.13h0Z"/><path d="M59.45,43.09l1.96,3.78-1.42.4-5.87-6.41s3.91,2.02,4.52,2.36.81-.13.81-.13"/><path d="M65.24,45.93l-1.48.34-5.19-5.73s3.64,1.96,4.05,2.22c.4.2.81-.13.81-.13l1.75,3.3h.07Z"/><path d="M67.13,42.08l1.82,2.83-1.28.34-4.79-4.92s3.03,1.62,3.44,1.89c.4.2.81-.13.81-.13"/><path d="M70.37,41.68l1.69,2.29-1.28.47-4.11-3.98s2.56,1.21,2.97,1.35c.4.2.74-.13.74-.13"/><path d="M73.47,41.21l1.42,1.55-1.21.54-3.44-2.83s1.96.74,2.43.94c.47.13.81-.13.81-.13"/><path d="M75.42,40.73c-.47-.07-2.16-.4-2.16-.4l2.76,1.82,1.01-.61-.94-1.08s-.27.27-.67.2"/><path d="M78.05,39.72l.74.74-.88.67-1.82-1.15h1.42c.4,0,.54-.34.54-.34"/><path d="M79.81,38.71l.4.34-.67.67-1.15-.54s.54-.07.94-.13c.34,0,.54-.34.54-.34"/><path d="M80.14,38.31c.54-.34,1.01-.67,1.48-1.08-.13.27-.47.74-.94,1.35l-.54-.2v-.07Z"/><path d="M29.51,32.71l-.2,14.83c-1.42.81-2.83,1.69-4.11,2.56l2.9-16.92c.4-.13.94-.27,1.42-.4"/><path d="M34.3,31.56l-.47,13.62c-1.35.61-2.7,1.28-4.05,2.02l3.24-15.37c.4-.07.88-.2,1.28-.27"/><path d="M40.16,30.82l-1.48,12.61c-.34.13-.67.2-1.01.34-1.08.34-2.22.81-3.3,1.28l4.18-14.09c.54,0,1.01-.13,1.55-.13"/><path d="M45.69,30.69l-2.09,11.39c-1.42.34-2.9.74-4.45,1.15l5.12-12.54h1.42"/><path d="M50.61,31.16l-1.96,9.91c-1.42.27-2.97.54-4.45.88l5.06-10.99c.2,0,.4,0,.61.07.27,0,.47,0,.74.07"/><path d="M55.13,32.1l-1.82,8.36c-1.35.13-2.76.34-4.18.54l4.72-9.24c.4.07.81.2,1.28.34"/><path d="M59.18,33.25l-1.28,6.88c-1.28.07-2.7.2-4.11.34l4.32-7.48c.34.13.67.2,1.08.34"/><path d="M63.69,34.6l-1.62,5.33c-1.08,0-2.16,0-3.3.07h-.54l4.05-5.8c.47.13.88.27,1.35.4"/><path d="M66.73,35.41l-1.15,4.52h-2.83l2.76-4.79c.4.13.81.2,1.15.34"/><path d="M69.9,36.28l-.74,3.84c-1.01,0-2.02,0-3.03-.07l2.49-4.05c.4.13.81.2,1.21.27"/><path d="M72.8,36.82l-.54,3.17h-2.7l2.09-3.44c.4.07.74.13,1.15.2"/><path d="M75.36,37.23l-.27,2.56c-.81.13-1.55.2-2.36.27l1.55-2.97c.34,0,.74.07,1.08.13"/><path d="M77.38,37.3l-.13,1.96c-.2,0-.47.13-.67.2-.34.07-.67.13-1.01.2l.88-2.36h.94"/><path d="M79.4,37.23v1.15c-.47.27-1.01.54-1.55.74l.74-1.82c.34,0,.61,0,.88-.07"/><path d="M80.01,38.04l.2-.94c.74-.13,1.28-.34,1.62-.47-.47.47-1.08.94-1.82,1.42"/><path d="M23.98,52.33c-.81.88-2.02,2.22-3.44,4.05-1.15,1.48-2.7,3.64-3.3,4.58v-4.72c1.15-.94,2.56-2.09,4.11-3.3.81-.61,1.69-1.28,2.63-1.89v1.28Z"/><path d="M28.9,64.8h-4.18l-.61,3.3h4.11c.54,0,1.01,0,1.55-.34.47-.34.81-.88.94-1.42.2-1.35-.74-1.55-1.82-1.55M27.89,70.67h-4.18l-.61,3.3h4.11c.54,0,1.01,0,1.55-.34.47-.34.81-.88.94-1.42.2-1.35-.74-1.55-1.82-1.55M31.53,69.39c1.28.67,1.75,1.82,1.48,3.37-.2,1.08-.67,2.09-1.55,2.83-1.15.94-2.63.94-3.91.94h-7.96l2.49-14.23h8.09c.61,0,1.15,0,1.75.13,1.75.27,2.56,1.82,2.22,3.64-.27,1.35-1.28,2.83-2.7,3.37"/><path d="M40.16,76.53h-5.53s.88-4.65,1.15-6.27l1.42-8.02h3.03l-1.42,8.02-.54,3.71h6.67l-.47,2.56h-4.32Z"/><path d="M52.1,70.67l2.76-4.99,1.15,4.99h-3.91ZM53.71,62.31l-8.43,14.23h3.57l1.96-3.3h5.46l.81,3.3h3.57l-3.37-14.23h-3.57Z"/><path d="M67.33,76.53c-1.15,0-1.96,0-2.97-.4-2.63-.94-2.9-3.98-2.43-6.67.34-2.02,1.21-4.18,2.9-5.66,1.42-1.21,3.51-1.48,5.12-1.48h4.85l-.47,2.56h-4.52c-2.97,0-4.05,1.62-4.52,4.32-.2,1.08-.27,2.49,0,3.44.4,1.15,1.75,1.35,2.97,1.35h4.38l-.47,2.56h-4.99.13Z"/><path d="M76.84,62.31l-2.49,14.23h3.03l2.49-14.23h-3.03ZM85.4,62.31l-6.67,7.08,3.91,7.21h3.98l-4.38-7.21,7.21-7.08h-4.05Z"/><path d="M93.49,76.53c-1.15,0-1.96,0-2.97-.4-2.63-.94-2.9-3.98-2.43-6.67.34-2.02,1.21-4.18,2.9-5.66,1.42-1.21,3.51-1.48,5.12-1.48h4.85l-.47,2.56h-4.52c-2.97,0-4.05,1.62-4.52,4.32-.2,1.08-.27,2.49,0,3.44.4,1.15,1.75,1.35,2.97,1.35h4.38l-.47,2.56h-4.99.13Z"/><path d="M109.07,65.68l1.15,4.99h-4.05l2.9-4.99ZM107.92,62.24l-8.43,14.23h3.57l1.96-3.3h5.46l.81,3.3h3.57l-3.37-14.23h-3.57Z"/><path d="M127.07,65.14c-.34-.34-.94-.34-1.48-.34h-4.18l-.74,4.18h4.11c.34,0,.74,0,1.08-.13.94-.27,1.35-1.28,1.55-2.09.13-.61.07-1.21-.34-1.62M128.01,70.94c-1.01.54-1.89.61-2.9.61h-4.85l-.88,4.99h-3.03l1.35-7.55,1.21-6.74h7.15c1.15,0,2.43,0,3.37.61,1.21.81,1.69,2.49,1.42,4.05s-1.21,3.17-2.7,4.05"/><path d="M142.98,75.19c-1.48,1.48-3.1,1.35-4.85,1.35h-7.15l.47-2.56h6.47c1.21,0,2.83,0,3.1-1.62.07-.47,0-.94-.27-1.21-.4-.54-1.21-.54-1.89-.54h-2.63c-.81,0-1.89-.07-2.63-.4-1.35-.61-1.89-2.16-1.62-3.71.2-1.15.94-2.49,1.96-3.3,1.28-1.01,2.9-.94,4.32-.94h7.08l-.47,2.56h-6.34c-1.28,0-2.83-.2-3.17,1.55-.27,1.55,1.15,1.62,2.29,1.62h2.29c1.08,0,2.16,0,3.1.54,1.28.67,1.55,2.29,1.28,3.78-.2,1.01-.67,2.02-1.42,2.83"/></svg>