<?xml version="1.0" encoding="UTF-8"?><svg id="Layer_1" xmlns="http://www.w3.org/2000/svg" width="160" height="100" viewBox="0 0 160 100"><path d="M69.47,72.36l1.32-5.07c-2.39,3.44-6.21,5.58-9.25,5.58-4.34,0-5.55-3.05-3.97-7.79l8.23-24.61h9.12l-7.64,22.86c-.46,1.36.09,2.34,1.14,2.34s2.25-.97,2.7-2.34l7.64-22.86h9.06l-10.66,31.88h-7.69Z"/><path d="M90.35,72.88c-6.88,0-9.17-4.29-7.26-10l.35-1.04h7.69l-.48,1.43c-.69,2.08-.13,2.99,1.42,2.99s2.68-.58,3.26-2.34c1.04-3.12-2.52-3.96-5.28-5.91-2.15-1.56-3.76-3.77-2.22-8.38,2.24-6.69,7.91-9.74,13.55-9.74,6.08,0,8.53,4.55,6.68,10.07l-.13.39h-7.63l.35-1.04c.52-1.56.21-2.66-1.22-2.66s-2.39.65-2.91,2.21c-.5,1.49.75,2.4,2.38,3.44,2.99,1.82,7.32,4.09,5.04,10.91-1.52,4.55-6.15,9.68-13.59,9.68Z"/><path d="M116.5,72.36l7.64-22.86c.46-1.36-.09-2.34-1.08-2.34-1.12,0-2.31.97-2.77,2.34l-7.64,22.86h-9.12l14.46-43.25h9.12l-5.12,15.33c2.21-2.53,5.03-4.48,8.2-4.48,3.97,0,5.2,2.99,3.6,7.79l-8.23,24.61h-9.06Z"/><path d="M55.74,29.11h-15.75l-14.46,43.25h11.1l5.56-16.62h2.54c1.55,0,1.81,1.62,1.42,2.79l-2.39,7.14c-1.04,3.12-1.37,6.69.37,6.69h9.18l.07-.19c-.05-2.08,0-4.29.92-7.01l2.52-7.53c.76-2.27-.02-4.94-2.47-6.17,3.27-1.23,5.64-3.9,6.38-6.1l2.13-6.36c2-5.97-1.72-9.87-7.12-9.87ZM44.65,48.41l3.99-11.9,3.76,5.5-7.76,6.4Z"/></svg>