<?xml version="1.0" encoding="UTF-8"?><svg id="Layer_1" xmlns="http://www.w3.org/2000/svg" width="160" height="100" viewBox="0 0 160 100"><path d="M106.77,37.79c-6.42-4.12-14.88-8.37-19.27-10.29-.06-.03-.12-.04-.15-.03-.04,0-.06.01-.06.04,0,.02.02.04.06.06,4.86,2.55,13.93,8.87,16.38,10.98,1.48,1.12,3.69.83,3.77.09v-.08c-.02-.23-.24-.49-.73-.77"/><path d="M41.93,36.54c.86.25,1.78.43,2.76.56,6.13.85,12.98-3.83,15.33-4.64,1.11-.38,2.33-.72,3.67-.74h.4c.13,0,.27.02.41.03,1.54.14,2.78.99,2.77,1.92,0,.1-.01.21-.05.31-.16.53-.9,1.12-1.68,1.14-.45.02-1.26-.12-1.25-.72,0,0-.37.31-.39.88,0,.27.05.59.25.96,1.12,2.08,6.78,4.28,20.24,4.59,6.06.04,11.39-.37,16.2-1.04.22-.03.46-.12.47-.35.01-.29-1.19-1.46-1.19-1.46-4.13-4.22-9.39-8.47-14.74-10.67-4.16-1.71-5.47-2.73-8.18-5.62-1.39-1.48-2.66-2.05-3.88-2.09-4.06-.14-7.52,5.66-12.54,3.97-.17-.06-.35-.09-.56-.1h-.22c-1.46.03-3.86.94-6.05,2.52-2.22,1.6-9.85,6.15-10.71,6.77-.21.16-1.61,1.2-1.81,1.36,0,0-1.35,1-1.37,1.29-.02.23.2.34.41.44.12.06.73.42,1.72.71"/><path d="M89.71,27.48c-.05-.02-.1-.02-.13-.02-.06,0-.09.02-.08.04,0,.02.01.04.05.05,6.86,3.21,14.14,7.05,18.84,9.55,2.15,1.28,4.67,1.29,6.08.8.82-.29,1.45-.84.47-1.21-9.36-3.4-24.98-9.15-25.22-9.22"/><path d="M116.55,35.44c.42.12,1.02.23,1.45.33,2.25.54,4.25.27,5.37-.4.66-.39,1.1-.98.18-1.12-1.27-.18-2.68-.39-4.14-.6-.43-.06-.88-.12-1.32-.19-6.41-.85-17.46-3.6-26.08-5.98-.02,0-.04-.01-.06-.01-.06,0-.11.02-.13.05v.02s.04.05.11.08c8.18,2.6,17.37,6.3,24.63,7.82"/><path d="M141.63,49.89c-.38-.38-.84-.57-1.37-.57s-.96.18-1.34.53c-.4.38-.61.85-.61,1.42s.19,1.01.56,1.38c.37.37.83.56,1.38.56s.98-.18,1.36-.55c.39-.38.58-.84.58-1.39s-.19-.99-.57-1.37ZM141.39,52.41c-.31.32-.69.47-1.13.47s-.82-.16-1.13-.47c-.31-.31-.47-.7-.47-1.15s.15-.81.46-1.13c.31-.32.7-.49,1.14-.49s.82.16,1.13.49c.31.32.47.69.47,1.13s-.16.83-.47,1.14Z"/><path d="M141.14,52.22s0-.04,0-.06v-.19c0-.22-.06-.38-.19-.48-.07-.05-.17-.1-.31-.12.15-.02.27-.06.37-.14.1-.08.15-.21.15-.39,0-.24-.1-.41-.29-.51-.11-.06-.25-.1-.42-.11-.03,0-.18,0-.44,0-.27,0-.47,0-.6,0v2.15h.56v-.76h.24c.09.01.15.02.19.04.08.03.13.08.16.16.02.05.03.13.04.26s.02.23.04.3h.54l-.02-.06s-.01-.04-.02-.06ZM140.5,51.11c-.07.05-.18.08-.31.08h-.22v-.62h.14c.14,0,.25.01.33.04.12.05.17.13.17.25s-.04.2-.11.26Z"/><path d="M56.34,49.98c.74.04,1.26.13,1.65.26.7.22,1.04.48,1.22,1,.13.35.13.74.13,1.65v23.3c0,.91-.04,1.35-.17,1.69-.13.48-.48.74-1.13.96-.39.13-.87.22-1.7.26v.7h15.52v-.7c-.74-.04-1.26-.13-1.65-.26-.7-.22-1.04-.48-1.22-1-.13-.35-.13-.74-.13-1.65v-23.3c0-.91.04-1.35.17-1.69.13-.48.48-.74,1.13-.96.39-.13.87-.22,1.7-.26v-.69h-15.52v.69Z"/><path d="M120.95,49.98c.74.04,1.26.13,1.65.26.7.22,1.04.48,1.22,1,.13.35.13.74.13,1.65v23.3c0,.91-.04,1.35-.17,1.69-.13.48-.48.74-1.13.96-.39.13-.87.22-1.7.26v.7h15.52v-.7c-.74-.04-1.26-.13-1.65-.26-.7-.22-1.04-.48-1.22-1-.13-.35-.13-.74-.13-1.65v-23.3c0-.91.04-1.35.17-1.69.13-.48.48-.74,1.13-.96.39-.13.87-.22,1.7-.26v-.69h-15.52v.69Z"/><path d="M109.7,49.98c1.34.04,1.99.13,2.64.26.01,0,.02,0,.03,0,1.05.19,1.67,1.3,1.3,2.31l-5.41,14.83-4.71-13.21-1.63-4.89h-9.84l3.64,9.73-3.02,8.31-6.92-18.05h-11.53v.69c.87.17,1.34.35,1.82.82.35.35.69.87,1.08,1.69l11.25,27.31h1.47l3.78-10.32h0s.27-.73.27-.73l2.71-7.39,7.36,18.44h1.47l3.61-9.88,6.23-17.04c.37-.92.75-1.57,1.2-1.94.56-.56,1.21-.91,2.21-.95v-.69h-9v.69Z"/><path d="M50.19,69.98c-3.17-.61-5.95,1.8-5.95,4.86,0,.73.16,1.43.45,2.06h0c.3.68-.19,1.43-.92,1.43h-7.2l15.67-28.62v-.43h-23.5c-3.07,0-5.48,2.78-4.86,5.96.38,1.95,1.92,3.49,3.87,3.86,3.17.61,5.95-1.8,5.95-4.86,0-.73-.16-1.43-.45-2.06,0,0,0,0,0-.01-.3-.67.25-1.42.98-1.42h7.03l-15.63,28.66v.39h.07,0s23.5,0,23.5,0c3.07,0,5.48-2.78,4.86-5.96-.38-1.95-1.92-3.49-3.87-3.86Z"/></svg>