<svg xmlns="http://www.w3.org/2000/svg" viewBox="0 0 407.6 31.529"><g data-name="Layer 2"><g data-name="Layer 1"><path class="cls-1" d="M.088,23.62A2.671,2.671,0,0,1,0,22.835c0-.48.175-.7.524-.7.741,0,.741,1.264,1.786,3.356a8.207,8.207,0,0,0,7.583,4.4c4.489,0,7.278-2.7,7.278-6.625,0-3.835-2.44-5.142-7.234-6.537C3.836,14.948.959,12.9.959,7.975.959,3.4,4.664,0,10.547,0c3.4,0,5.361,1.35,5.971,1.35.522,0,.915-.479,1.177-.479.13,0,.261.218.3.61l.61,5.317a2.653,2.653,0,0,1,.044.566c0,.393-.131.611-.523.611-.828,0-.654-1.134-1.612-2.615-1.787-2.833-3.749-4.053-6.843-4.053-3.748,0-6.45,2.309-6.45,5.4,0,3.53,2.31,4.445,6.407,5.753,3.051.958,5.491,1.742,7.017,3.137a8.542,8.542,0,0,1,2.789,6.754c0,5.448-3.922,9.11-10.721,9.11-4.315,0-7.366-1.395-7.671-2.964Z"/><path class="cls-1" d="M66.343,18.94H58.851c-.667,0-.981-.157-.981-.51a1.488,1.488,0,0,1,.236-.706l4.236-9.061c.156-.313.353-.431.51-.431s.353.157.471.471l3.568,9.177a2.285,2.285,0,0,1,.2.667c0,.236-.275.393-.745.393m-27.312,0H31.539c-.666,0-.98-.157-.98-.51a1.485,1.485,0,0,1,.235-.706l4.237-9.061c.156-.313.352-.431.509-.431s.353.157.471.471L39.58,17.88a2.3,2.3,0,0,1,.2.667c0,.236-.274.393-.744.393M55.988,31.02c.432.01.628-.117.628-.47,0-.667-.746-.431-1.412-.706-.981-.393-1.452-1.02-1.452-1.726a5.124,5.124,0,0,1,.588-2l1.922-4.158c.431-.941.706-1.452,1.766-1.452h8.825c1.019,0,1.333.315,1.686,1.216l2.039,5.295a4.153,4.153,0,0,1,.392,1.491c0,.706-.431,1.059-1.293,1.373-.55.2-.9.236-.9.705a.5.5,0,0,0,.432.472,29.362,29.362,0,0,1,3.648-.274c2.431,0,3.961.234,4.51.234.353,0,.51-.117.51-.47,0-.667-.9-.431-1.8-.824-1.254-.51-1.961-1.766-2.706-3.687l-8.9-22.67c-.157-.392-.236-.628-.51-.628-.314,0-.431.157-.627.549L52.458,26.51a9.034,9.034,0,0,1-2.04,2.98,1.374,1.374,0,0,1-1.66.236c-1.252-.517-1.961-1.766-2.707-3.687l-8.9-22.67c-.157-.392-.235-.628-.51-.628-.314,0-.431.157-.627.549L25.146,26.51a8.037,8.037,0,0,1-2.039,2.98c-.667.51-1.569.472-1.569,1.021a.512.512,0,0,0,.47.509,21.881,21.881,0,0,1,2.2-.234c2.2,0,3.726.234,4.471.234.432,0,.628-.117.628-.47,0-.667-.746-.431-1.413-.706-.98-.393-1.451-1.02-1.451-1.726a5.11,5.11,0,0,1,.589-2L28.95,21.96c.432-.941.707-1.452,1.766-1.452h8.825c1.019,0,1.333.315,1.686,1.216l2.04,5.295a4.175,4.175,0,0,1,.392,1.491c0,.706-.432,1.059-1.294,1.373-.55.2-.9.236-.9.705,0,.2.2.485.431.472,2.511-.145,4.807-.3,7.262-.3,2.393,0,5.975.242,6.832.261"/><path class="cls-1" d="M87.1,6.27c0-.745-.274-.98-1.1-.98H80.554c-1.451,0-2.275.706-2.942,2.235-.431,1.06-.352,1.922-.98,1.922-.313,0-.392-.156-.392-.51a4.553,4.553,0,0,1,.039-.666l.431-3.962c.079-.784.354-.823,1.3-.823.863,0,2.393.235,4.628.235H94.87c2.471,0,4.158-.235,5.021-.235.549,0,.784.195.824.666l.274,3.57V8c0,.471-.118.746-.471.746-.7,0-.431-1.02-.862-1.844A3.389,3.389,0,0,0,96.479,5.29h-5.1c-.9,0-1.215.2-1.215,1.02V26.2c0,1.96.078,2.706,1.49,3.333,1.3.589,2.157.275,2.157.981,0,.392-.274.587-.862.587-1.138,0-2.628-.274-4.472-.274-2.235,0-3.687.353-4.353.353-.472,0-.746-.2-.746-.548,0-.864,1.255-.551,2.314-1.02,1.412-.628,1.412-1.491,1.412-3.57Z"/><path class="cls-1" d="M116.8,31.529c-8.276,0-13.336-5.333-13.336-13.844A15.335,15.335,0,0,1,107.5,6.859a12.326,12.326,0,0,1,9.492-3.765,15.528,15.528,0,0,1,6.59,1.412c1.411.627,2.2,1.53,2.745,1.53.314,0,.628-.354.9-.354.235,0,.353.275.392.785l.392,4.078a5.85,5.85,0,0,1,.039.785c0,.432-.078.667-.431.667-.706,0-.823-1.216-1.569-2.432-2.235-3.529-5.491-5.412-9.021-5.412-6.04,0-10.315,4.746-10.315,11.923,0,8.432,4.628,14.081,10.708,14.081a11.5,11.5,0,0,0,7.765-3.139c1.53-1.45,1.766-3.019,2.432-3.019.2,0,.353.234.353.548a3.64,3.64,0,0,1-.118.629l-.784,3.216A16.509,16.509,0,0,1,116.8,31.529"/><path class="cls-1" d="M135.19,8.7c0-1.687-.078-2.706-1.216-3.53-1.1-.784-2.354-.352-2.354-1.1,0-.47.236-.588.824-.588.746,0,2.079.235,4,.235a39.611,39.611,0,0,0,4.314-.235c.393,0,.628.235.628.51,0,.784-1.294.549-2.235,1.333-.9.784-.942,1.765-.942,3.373v6c0,.9.157.979,1.02.979h13.022c.863,0,1.058-.078,1.058-.979V8.742c0-1.687-.078-2.707-1.215-3.531-1.1-.784-2.354-.391-2.354-1.137,0-.47.236-.549.824-.549,1.059,0,2.51.235,4.354.235a36.121,36.121,0,0,0,3.961-.235c.392,0,.628.235.628.51,0,.785-1.3.51-2.236,1.294-.9.784-.942,1.765-.942,3.373V25.724c0,1.766.157,2.864,1.256,3.687,1.059.785,2.314.314,2.314,1.138,0,.47-.236.548-.824.548-1.255,0-2.667-.235-4.236-.235a41.088,41.088,0,0,0-4.118.235c-.393,0-.588-.2-.588-.509,0-.745,1.137-.589,2.118-1.452,1.019-.9,1.058-1.882,1.058-3.451V18.076c0-.705-.313-.824-1.058-.824H139.23c-.746,0-1.02.119-1.02.824v7.648c0,1.766.157,2.864,1.256,3.687,1.058.785,2.314.314,2.314,1.138,0,.47-.236.548-.824.548-1.256,0-2.667-.235-4.236-.235a39.784,39.784,0,0,0-4.079.235c-.393,0-.628-.2-.628-.509,0-.745,1.137-.589,2.118-1.452,1.02-.9,1.059-1.882,1.059-3.451Z"/><path class="cls-1" d="M167.156,8.7c0-1.687-.079-2.706-1.177-3.53-1.059-.823-2.235-.314-2.235-1.176,0-.392.235-.51.784-.51.628,0,1.961.235,3.922.235a40.9,40.9,0,0,0,4.354-.235c.392,0,.628.235.628.51,0,.784-1.334.549-2.276,1.333-.9.784-.9,1.765-.9,3.373V25.724c0,1.766.118,2.864,1.216,3.687,1.059.785,2.314.314,2.314,1.138,0,.47-.235.548-.823.548-1.255,0-2.628-.235-4.236-.235a40.053,40.053,0,0,0-4.118.235c-.393,0-.628-.2-.628-.509,0-.745,1.137-.589,2.118-1.452,1.019-.9,1.059-1.882,1.059-3.451Z"/><path class="cls-1" d="M200.19,16.08c-2-2.353-3.094-3.835-4.185-3.835-2.091,0-4.928,2.4-4.928,5.884a10.138,10.138,0,0,0,3.138,7.015,11.515,11.515,0,0,0,8.236,3.488,12.131,12.131,0,0,0,7.678-2.7,105.162,105.162,0,0,1-9.939-9.849m.431,15.21c-7.017,0-11.941-4.75-11.941-11.418,0-4.533,2.707-7.584,7.281-8.891a7.871,7.871,0,0,1-1.917-4.837c0-3.356,2.747-5.8,6.669-5.8a14.117,14.117,0,0,1,4.753,1.045c.348,0,.7-.392,1-.392s.393.348.436,1.089l.174,3.749V5.97c0,.479-.217.74-.479.74-.61,0-.61-1.046-1.4-2.179a6.171,6.171,0,0,0-5.144-3.094,3.282,3.282,0,0,0-3.486,3.443c0,2.876,5.315,8.585,15.6,18.3a7.8,7.8,0,0,0,1.409-2.76c.6-2.561-.222-3.158-1.931-3.906-1.038-.454-2.354-.175-2.354-.916,0-.436.392-.523,1.133-.523.61,0,2.139.2,3.839.174,2.274-.032,4.646-.44,4.711.238.12,1.265-3.144.67-3.463,2.638-.275,1.7.1,2.745-2.123,6.144,3.922,3.4,6.318,5.274,7.669,5.274a12.111,12.111,0,0,0,1.482-.3.437.437,0,0,1,.437.435c0,.61-1.351,1.525-3.489,1.525-2.57,0-4.924-1.613-8.235-4.315a14.4,14.4,0,0,1-10.641,4.4"/><path class="cls-1" d="M233.9,23.62a2.7,2.7,0,0,1-.087-.785c0-.48.175-.7.522-.7.742,0,.742,1.264,1.787,3.356a8.208,8.208,0,0,0,7.583,4.4c4.489,0,7.279-2.7,7.279-6.625,0-3.835-2.441-5.142-7.235-6.537-6.1-1.786-8.978-3.835-8.978-8.759,0-4.576,3.7-7.975,9.588-7.975,3.4,0,5.361,1.35,5.97,1.35.523,0,.916-.479,1.178-.479.13,0,.261.218.305.61l.609,5.317a2.653,2.653,0,0,1,.044.566c0,.393-.13.611-.523.611-.828,0-.653-1.134-1.613-2.615-1.786-2.833-3.747-4.053-6.841-4.053-3.748,0-6.45,2.309-6.45,5.4,0,3.53,2.309,4.445,6.406,5.753,3.052.958,5.491,1.742,7.017,3.137a8.542,8.542,0,0,1,2.789,6.754c0,5.448-3.922,9.11-10.721,9.11-4.315,0-7.366-1.395-7.67-2.964Z"/><path class="cls-1" d="M300.158,18.94h-7.491c-.667,0-.98-.157-.98-.51a1.5,1.5,0,0,1,.235-.706l4.236-9.061c.156-.313.352-.431.51-.431s.352.157.47.471l3.569,9.177a2.285,2.285,0,0,1,.2.667c0,.236-.275.393-.746.393m-27.311,0h-7.492c-.666,0-.98-.157-.98-.51a1.5,1.5,0,0,1,.234-.706l4.237-9.061c.157-.313.353-.431.51-.431s.353.157.471.471L273.4,17.88a2.307,2.307,0,0,1,.2.667c0,.236-.275.393-.745.393M289.8,31.02c.432.01.628-.117.628-.47,0-.667-.746-.431-1.413-.706-.98-.393-1.451-1.02-1.451-1.726a5.124,5.124,0,0,1,.588-2l1.922-4.158c.432-.941.707-1.452,1.766-1.452h8.824c1.02,0,1.334.315,1.687,1.216l2.04,5.295a4.175,4.175,0,0,1,.392,1.491c0,.706-.431,1.059-1.294,1.373-.55.2-.9.236-.9.705a.5.5,0,0,0,.432.472,29.362,29.362,0,0,1,3.648-.274c2.431,0,3.96.234,4.511.234.352,0,.509-.117.509-.47,0-.667-.9-.431-1.8-.824-1.256-.51-1.961-1.766-2.707-3.687l-8.9-22.67c-.157-.392-.236-.628-.511-.628-.312,0-.43.157-.627.549L286.274,26.51a9.049,9.049,0,0,1-2.039,2.98,1.375,1.375,0,0,1-1.661.236c-1.253-.517-1.962-1.766-2.707-3.687l-8.9-22.67c-.158-.392-.236-.628-.51-.628-.313,0-.431.157-.627.549L258.962,26.51a8.014,8.014,0,0,1-2.04,2.98c-.666.51-1.568.472-1.568,1.021a.512.512,0,0,0,.47.509,21.954,21.954,0,0,1,2.2-.234c2.2,0,3.726.234,4.471.234.432,0,.628-.117.628-.47,0-.667-.746-.431-1.413-.706-.98-.393-1.451-1.02-1.451-1.726a5.11,5.11,0,0,1,.589-2l1.921-4.158c.432-.941.706-1.452,1.766-1.452h8.825c1.019,0,1.333.315,1.686,1.216l2.04,5.295a4.175,4.175,0,0,1,.392,1.491c0,.706-.431,1.059-1.293,1.373-.551.2-.9.236-.9.705,0,.2.2.485.43.472,2.512-.145,4.808-.3,7.263-.3,2.394,0,5.976.242,6.832.261"/><path class="cls-1" d="M320.92,6.27c0-.745-.275-.98-1.1-.98h-5.452c-1.451,0-2.275.706-2.941,2.235-.431,1.06-.352,1.922-.98,1.922-.313,0-.392-.156-.392-.51a4.553,4.553,0,0,1,.039-.666l.431-3.962c.079-.784.353-.823,1.294-.823.863,0,2.392.235,4.629.235h12.237c2.472,0,4.157-.235,5.02-.235.55,0,.785.195.823.666l.276,3.57V8c0,.471-.118.746-.471.746-.706,0-.431-1.02-.863-1.844a3.388,3.388,0,0,0-3.177-1.608h-5.1c-.9,0-1.216.2-1.216,1.02V26.2c0,1.96.079,2.706,1.49,3.333,1.3.589,2.158.275,2.158.981,0,.392-.274.587-.863.587-1.137,0-2.628-.274-4.471-.274-2.235,0-3.687.353-4.354.353-.47,0-.746-.2-.746-.548,0-.864,1.255-.551,2.315-1.02,1.412-.628,1.412-1.491,1.412-3.57Z"/><path class="cls-1" d="M350.611,31.529c-8.276,0-13.336-5.333-13.336-13.844a15.335,15.335,0,0,1,4.04-10.826,12.325,12.325,0,0,1,9.493-3.765A15.527,15.527,0,0,1,357.4,4.506c1.411.627,2.2,1.53,2.745,1.53.315,0,.627-.354.9-.354.235,0,.353.275.392.785l.393,4.078a5.85,5.85,0,0,1,.039.785c0,.432-.079.667-.432.667-.706,0-.823-1.216-1.568-2.432-2.236-3.529-5.492-5.412-9.022-5.412-6.041,0-10.315,4.746-10.315,11.923,0,8.432,4.628,14.081,10.708,14.081A11.5,11.5,0,0,0,359,27.018c1.53-1.45,1.765-3.019,2.432-3.019.2,0,.353.234.353.548a3.6,3.6,0,0,1-.117.629l-.785,3.216a16.509,16.509,0,0,1-10.276,3.137"/><path class="cls-1" d="M369.006,8.7c0-1.687-.078-2.706-1.215-3.53-1.1-.784-2.354-.352-2.354-1.1,0-.47.235-.588.824-.588.746,0,2.079.235,4,.235a39.611,39.611,0,0,0,4.314-.235c.392,0,.628.235.628.51,0,.784-1.294.549-2.235,1.333-.9.784-.941,1.765-.941,3.373v6c0,.9.156.979,1.02.979h13.021c.863,0,1.059-.078,1.059-.979V8.742c0-1.687-.079-2.707-1.216-3.531-1.1-.784-2.353-.391-2.353-1.137,0-.47.235-.549.823-.549,1.059,0,2.51.235,4.354.235a36.175,36.175,0,0,0,3.962-.235c.392,0,.626.235.626.51,0,.785-1.294.51-2.235,1.294-.9.784-.941,1.765-.941,3.373V25.724c0,1.766.157,2.864,1.254,3.687,1.061.785,2.316.314,2.316,1.138,0,.47-.237.548-.825.548-1.255,0-2.667-.235-4.235-.235a41.094,41.094,0,0,0-4.119.235c-.392,0-.588-.2-.588-.509,0-.745,1.137-.589,2.118-1.452,1.02-.9,1.059-1.882,1.059-3.451V18.076c0-.705-.313-.824-1.059-.824H373.047c-.746,0-1.02.119-1.02.824v7.648c0,1.766.156,2.864,1.254,3.687,1.059.785,2.315.314,2.315,1.138,0,.47-.235.548-.824.548-1.256,0-2.668-.235-4.236-.235a39.835,39.835,0,0,0-4.079.235c-.393,0-.628-.2-.628-.509,0-.745,1.138-.589,2.119-1.452,1.019-.9,1.058-1.882,1.058-3.451Z"/><path class="cls-1" d="M400.971,8.7c0-1.687-.078-2.706-1.176-3.53-1.059-.823-2.236-.314-2.236-1.176,0-.392.236-.51.784-.51.629,0,1.961.235,3.923.235a40.84,40.84,0,0,0,4.353-.235c.393,0,.628.235.628.51,0,.784-1.334.549-2.275,1.333-.9.784-.9,1.765-.9,3.373V25.724c0,1.766.118,2.864,1.215,3.687,1.06.785,2.315.314,2.315,1.138,0,.47-.235.548-.824.548-1.254,0-2.628-.235-4.235-.235a40.111,40.111,0,0,0-4.119.235c-.391,0-.627-.2-.627-.509,0-.745,1.137-.589,2.118-1.452,1.02-.9,1.058-1.882,1.058-3.451Z"/></g></g></svg>