<svg xmlns="http://www.w3.org/2000/svg" viewBox="0 0 1303 372"><path d="M234.1,64.2v299h-74.5v-299H0V0h393.7v64.2H234.1L234.1,64.2z"></path><path d="M540.7,169c-12.1-3-17.6-4-31.7-4c-58.4,0-97.2,23.8-97.2,85v113.3h-70.5V97.1h70.5v47c22.6-34.9,56.4-48.6,99.7-48.6c12.1,0,21.6,1.5,29.2,3.5L540.7,169L540.7,169z"></path><path d="M851.9,363.2h-70.5v-33.4c-19.6,22.3-51.4,39-95.2,39c-70,0-114.8-47.1-114.8-120.9V97.1h70.5v138.6c0,45,21.6,70.8,66.5,70.8c44.8,0,73-28.3,73-75.4V97.1h70.5V363.2z"></path><path d="M1121.2,262.5l59.9,25.8c-17.6,44-71.5,80.4-141.5,80.4c-91.1,0-156.6-56.2-156.6-138.6s64.4-138.1,156.1-138.1c91.6,0,146.5,59.7,146.5,135.6v22.3H951c8.6,38.4,43.3,61.2,88.6,61.2C1078.9,311.1,1109.1,291.8,1121.2,262.5L1121.2,262.5zM953.5,201.8h162.6c-4-24.8-33.7-53.1-79.5-53.1C997.8,148.7,964.6,166.9,953.5,201.8L953.5,201.8z"></path><path d="M1204.1,291.7l80.4-18.8l18.4,79.8l-80.4,18.8L1204.1,291.7z"></path></svg>