<?xml version="1.0" encoding="UTF-8"?><svg id="Layer_1" xmlns="http://www.w3.org/2000/svg" width="160" height="100" viewBox="0 0 160 100"><path d="M72.47,33.16l-10.31-7.49c-.24-.18-.41-.43-.49-.7-.16.55.03,1.14.49,1.47l10.11,7.34.2-.63Z"/><path d="M100.17,24.97c-.08.27-.25.52-.49.7l-10.31,7.49.2.63,10.11-7.34c.46-.34.65-.93.49-1.47Z"/><path d="M92.81,46.78c-.48.35-1.12.33-1.58,0l-10.31-7.49-10.31,7.49c-.46.33-1.1.35-1.58,0-.25-.18-.41-.43-.5-.71-.16.55.03,1.14.5,1.48.48.35,1.12.33,1.58,0l10.31-7.49,10.31,7.49c.46.33,1.1.35,1.58,0,.46-.34.66-.93.5-1.48-.08.28-.25.53-.5.71Z"/><path d="M70.2,45.6c-.09.07-.21.07-.3,0-.09-.07-.13-.17-.1-.28l4.1-12.61-10.72-7.79c-.09-.07-.13-.18-.09-.29.03-.11.13-.18.24-.18h13.25l4.09-12.6c.03-.11.13-.18.25-.18.11,0,.21.08.25.18l4.09,12.6h13.25c.11,0,.21.07.25.18.03.11,0,.22-.09.29l-10.72,7.79,4.1,12.61c.03.1,0,.21-.1.28-.09.07-.21.07-.3,0l-10.72-7.79-10.72,7.79h0Z"/><path d="M50.42,44.25v-2.49h-.49v-.8h1.89v.8h-.51v2.49h-.89,0ZM53.77,42.49c.23,0,.36-.21.36-.42,0-.29-.17-.41-.42-.4v.81h.06ZM54.21,44.25l-.49-1.37h0c0,.17.01.33.01.49v.88h-.89v-3.29h.86c.77,0,1.33.23,1.33,1.09,0,.36-.16.68-.51.83l.66,1.37h-.96,0ZM57.24,43.13l-.1-.76c-.03-.21-.04-.41-.06-.62h-.01c-.02.21-.05.41-.08.62l-.12.76h.37ZM57.41,44.25l-.07-.42h-.6l-.07.42h-.92l.79-3.29h1.09l.7,3.29h-.92,0ZM60.03,43.46c.41,0,.47-.51.47-.82,0-.36-.07-.85-.47-.85v1.67ZM59.15,40.97h.72c1.01,0,1.56.64,1.56,1.63,0,1.52-.95,1.66-1.5,1.66h-.78v-3.29h0ZM62.41,40.97h1.65v.78h-.76v.46h.68v.78h-.68v.5h.76v.78h-1.65v-3.29h0ZM99.83,44.25l-.08-2.07h0c-.04.24-.07.48-.11.72l-.25,1.35h-.72l-.31-2.07h0c0,.24,0,.48-.01.73l-.07,1.34h-.95l.38-3.29h1.11l.25,1.75h0c.03-.2.05-.41.09-.61l.21-1.14h1.09l.32,3.29h-.92,0ZM102.82,43.13l-.1-.76c-.03-.21-.04-.41-.07-.62h0c-.03.21-.05.41-.08.62l-.12.76h.37,0ZM102.99,44.25l-.07-.42h-.6l-.07.42h-.92l.79-3.29h1.08l.7,3.29h-.92,0ZM105.63,42.49c.24,0,.36-.21.36-.42,0-.29-.18-.41-.42-.4v.81h.06ZM106.06,44.25l-.49-1.37h0c0,.17.01.33.01.49v.88h-.89v-3.29h.86c.77,0,1.33.23,1.33,1.09,0,.36-.16.68-.51.83l.66,1.37h-.96ZM110.24,40.97l-.71,1.59.79,1.7h-.95l-.55-1.51h0v1.51h-.89v-3.29h.89v1.4h0l.49-1.4h.94ZM41.78,66.2c-.36-.99-.07-4,1.59-4.57,1.75-.6,2.82.3,3.35,2.06.19.65.15,1.34-.06,1.6-.31.38-.86.6-1.36.77l-1.31.43c-1.29.44-1.9.53-2.2-.29M50.04,69.86c-.85.85-1.95,1.7-3.04,2.04-1.02.33-3.94.58-4.8-1.83-.19-.52-.04-.68.44-.82.7-.21,2.52-.74,4.43-1.46,1.74-.65,3.29-1.45,3.77-1.77.87-.57,1-1.37.62-2.24-1.22-2.74-3.98-5.61-8.57-4.74-3.65.7-6.26,3.98-6.26,7.73,0,4.65,2.8,7.37,6.37,8.21,3.3.78,7.17-.81,8.83-3.5.66-1.03-1.19-2.26-1.79-1.63M84.5,66.2c-.21-.59-.2-1.91.2-2.99.27-.73.68-1.3,1.39-1.58.8-.32,1.48-.23,2.02.07.61.35,1.05,1.05,1.33,1.99.19.65.15,1.34-.06,1.6-.31.38-.8.56-1.36.77-.43.15-.87.3-1.31.44-1.29.41-1.9.52-2.2-.3M92.75,69.86c-.85.85-1.95,1.7-3.04,2.04-1.03.33-3.95.58-4.8-1.83-.19-.52-.03-.68.44-.82.7-.21,2.52-.74,4.43-1.46,1.74-.65,3.29-1.45,3.77-1.77.87-.57,1-1.37.62-2.24-1.22-2.74-3.98-5.61-8.57-4.74-3.65.7-6.26,3.98-6.26,7.73,0,4.65,2.8,7.37,6.37,8.21,3.3.78,7.17-.81,8.83-3.5.66-1.03-1.19-2.26-1.79-1.63M117.05,66.2c-.21-.59-.2-1.91.2-2.99.27-.73.68-1.3,1.39-1.58.8-.32,1.48-.23,2.02.07.61.35,1.05,1.05,1.33,1.99.19.65.15,1.34-.06,1.6-.31.38-.79.56-1.36.77-.43.15-.87.3-1.31.44-1.3.41-1.9.52-2.2-.3M125.31,69.86c-.85.85-1.95,1.7-3.04,2.04-1.02.33-3.94.58-4.8-1.83-.18-.52-.03-.68.44-.82.7-.21,2.52-.74,4.43-1.46,1.74-.65,3.29-1.45,3.77-1.77.87-.57,1-1.37.62-2.24-1.22-2.74-3.98-5.61-8.57-4.74-3.65.7-6.26,3.98-6.26,7.73,0,4.65,2.8,7.37,6.37,8.21,3.3.78,7.17-.81,8.83-3.5.66-1.03-1.19-2.26-1.79-1.63M24.73,64.98c-.26,0-.46.21-.46.46v5.27c0,.82.25,1.36.7,1.56.24.11.77.35,1.06.48.2.09.21.3.18.57-.03.24-.1.92-.12,1.17-.03.27-.24.39-.65.39h-7.62c-.39,0-.63-.07-.66-.39-.03-.25-.1-.97-.12-1.2-.03-.3.03-.46.21-.54.26-.12.81-.37,1.05-.48.47-.22.67-.86.67-1.53v-13.02c0-.73-.21-1.31-.74-1.56-.24-.11-.74-.34-.99-.46-.2-.1-.26-.28-.22-.55.03-.24.09-.64.12-.89.04-.32.27-.39.66-.39h7.27c.39,0,.61.07.65.39.03.25.09.66.12.89.04.27-.01.45-.21.55-.26.14-.62.34-.86.47-.31.17-.52.53-.52,1.37v3.8c0,.26.21.47.46.47h4.07c.26,0,.46-.21.46-.46,0,0,0,0,0,0v-3.8c0-.84-.21-1.19-.52-1.37-.23-.13-.6-.33-.86-.47-.2-.11-.25-.29-.21-.55.03-.24.09-.64.12-.89.04-.32.27-.39.65-.39h7.27c.39,0,.61.07.66.39.03.25.09.66.12.89.04.27-.02.45-.22.55-.25.12-.75.34-.99.46-.53.25-.73.83-.73,1.56v13.02c0,.67.2,1.31.67,1.53.24.11.8.36,1.05.48.19.09.25.24.21.54-.03.24-.1.95-.12,1.2-.03.32-.27.39-.66.39h-7.62c-.41,0-.62-.12-.65-.39-.03-.25-.1-.93-.12-1.17-.03-.27-.02-.47.18-.57.3-.13.82-.38,1.06-.48.44-.2.69-.74.7-1.56v-5.27c0-.26-.21-.46-.46-.46h-4.07Z"/><path d="M106.45,64.56s2.76,4.99,3.51,6.37c.57,1.04,1.22,1.33,2.09,1.83.22.13.29.21.25.63-.03.33-.08.82-.11,1.08-.04.36-.29.41-.65.41h-4.07c-.52,0-.72-.11-.9-.44-.2-.36-3.6-6.55-3.6-6.55l-1.28,1.23v1.71c0,.78.37,1.29.72,1.49.23.13.57.32.85.47.21.12.23.27.2.6-.02.24-.09.86-.11,1.11-.03.28-.22.39-.65.39h-6.78c-.39,0-.63-.07-.66-.39-.03-.25-.09-.92-.12-1.15-.03-.3.02-.45.22-.56.28-.16.57-.32.86-.48.33-.18.6-.68.6-1.5v-13.23c0-.92-.35-1.33-.62-1.48-.19-.11-.74-.41-.86-.48-.19-.11-.23-.31-.19-.57.03-.24.08-.54.11-.79.05-.33.26-.39.66-.39h4.89c.42,0,.88.31.88.89v10.11s2.75-2.47,3.15-2.84c.29-.26.21-.54.04-.61-.28-.13-.6-.27-.77-.35-.19-.09-.29-.19-.26-.52.03-.3.09-.8.11-1.03.03-.3.13-.43.63-.43h5.98c.38,0,.5.13.53.38.03.28.09.86.12,1.14.02.22-.13.35-.46.47-.87.32-1.24.54-2.41,1.67-.73.71-1.9,1.82-1.9,1.82M59.12,70.85c0,.78.27,1.27.62,1.46.28.16.57.32.85.47.21.12.23.27.2.6-.02.24-.09.86-.11,1.11-.03.28-.22.39-.65.39h-6.78c-.39,0-.63-.07-.66-.39-.04-.38-.08-.77-.12-1.15-.03-.3.02-.45.22-.56.28-.16.57-.32.86-.48.33-.19.61-.68.61-1.5v-7.41c0-1-.3-1.46-.62-1.64-.19-.11-.46-.26-.59-.33-.2-.11-.23-.31-.2-.56.03-.24.09-.63.12-.88.04-.32.27-.39.66-.39h5.13c.25,0,.45.2.45.45,0,0,0,0,0,0v10.81s0,0,0,0ZM56.24,53.43c-1.5,0-2.72,1.17-2.72,2.62s1.22,2.62,2.72,2.62,2.72-1.17,2.72-2.62-1.22-2.62-2.72-2.62M76.79,63.39c0-2.72-1.23-3.76-2.66-4.22-1.65-.52-3.64.34-4.66.81-.27.12-.54.26-.8.39-.26-.62-.4-.8-.8-.8h-4.83c-.39,0-.61.07-.66.39-.04.25-.09.65-.12.88-.04.25,0,.44.2.56.13.07.4.23.58.33.32.18.61.65.62,1.64v7.41c0,.82-.27,1.32-.6,1.5-.29.16-.57.32-.86.48-.2.11-.25.26-.22.56.03.24.09.9.12,1.15.03.32.27.39.66.39h6.78c.43,0,.62-.11.65-.39.02-.25.09-.87.11-1.11.03-.33.01-.48-.2-.6-.28-.16-.57-.31-.85-.47-.44-.25-.62-.89-.62-1.48v-5.89c0-1.54.75-2.4,1.78-2.53.69-.09,1.56.34,1.56,1.55v7.94c0,2.26,1.92,3.13,3.43,3.13,1.6,0,2.96-.73,3.57-2.01.19-.4-.04-.71-.24-.93-.23-.25-.43-.47-.8-.28-.36.19-.75.55-.97.43-.16-.09-.18-.23-.18-.59v-8.24h0ZM142.58,63.39c0-2.72-1.23-3.76-2.66-4.22-1.65-.52-3.64.34-4.66.81-.41.19-.8.39-.8.39-.26-.62-.4-.8-.8-.8h-4.83c-.39,0-.61.07-.66.39-.03.25-.09.65-.12.88-.04.25,0,.44.19.56.13.07.4.23.59.33.32.18.61.65.62,1.64v7.41c0,.82-.27,1.32-.61,1.5-.29.16-.57.32-.85.48-.2.11-.25.26-.22.56.02.24.09.9.12,1.15.03.32.27.39.66.39h6.78c.44,0,.62-.11.65-.39.02-.25.09-.87.11-1.11.03-.33.01-.48-.2-.6-.28-.16-.57-.31-.85-.47-.44-.25-.62-.89-.62-1.48v-5.89c0-1.54.75-2.4,1.78-2.53.69-.09,1.56.34,1.56,1.55v7.94c0,2.26,1.92,3.13,3.43,3.13,1.6,0,2.96-.73,3.57-2.01.19-.4-.04-.71-.24-.93-.22-.25-.43-.47-.8-.28-.37.19-.75.55-.97.43-.16-.09-.18-.23-.18-.59v-8.24h0ZM143.6,54.2c0-.26-.27-.35-.5-.35h-.52v.74h.59c.25,0,.43-.17.43-.39M144.32,55.71c.05.35.21.6.3.79-.36,0-.49,0-.8,0-.15-.34-.19-.58-.26-.81-.1-.35-.32-.45-.69-.45h-.28v1.26h-.74v-3.23h1.54c.36,0,.98.21.98.9,0,.43-.24.73-.48.82.27.18.38.38.44.72M145.46,54.99c0-1.32-1.07-2.39-2.38-2.39s-2.4,1.07-2.4,2.39,1.08,2.39,2.4,2.39,2.38-1.07,2.38-2.39M146.07,54.99c0,1.65-1.34,3-2.99,3s-3.01-1.34-3.01-3,1.35-3,3.01-3c1.65,0,2.99,1.34,2.99,3"/></svg>