<?xml version="1.0" encoding="UTF-8"?><svg id="Layer_1" xmlns="http://www.w3.org/2000/svg" width="160" height="100" viewBox="0 0 160 100"><defs><style>.cls-1{fill-rule:evenodd;}</style></defs><path d="M51.41,48.58v-2.97h-5.02l5.02-5.06v-2.84h-19.06l-9.52,9.6v19.18h19.06l9.52-9.6v-2.88h-5.38s5.38-5.42,5.38-5.42Z"/><path class="cls-1" d="M114.03,45.93v15.17h4.63v-17.99h-1.79l-2.84,2.82Z"/><path d="M135.73,61.12h-14.47v-3.65l8.94-10.65h-8.94v-3.73h14.47v3.69l-9.05,10.61h9.05v3.73Z"/><path d="M101.02,61.12l-7.13-18.01h4.72l3.14,8.28c.4,1.07.72,2.05.98,2.95.3.88.51,1.56.62,2.03.13-.56.34-1.28.62-2.15.32-.9.68-1.84,1.05-2.84l3.29-8.28h4.59l-7.51,18.01s-4.39,0-4.39,0Z"/><path d="M80.83,61.12h-4.44v-18.01h4.1l.38,2.35c.55-.9,1.34-1.6,2.35-2.11,1.05-.51,2.18-.77,3.39-.77,2.26,0,3.95.66,5.1,1.99,1.17,1.34,1.75,3.16,1.75,5.46v11.07h-4.44v-10.01c0-1.51-.34-2.62-1.02-3.35-.68-.75-1.6-1.13-2.77-1.13-1.39,0-2.47.43-3.24,1.32-.79.87-1.17,2.03-1.17,3.5v9.69Z"/><path d="M65.53,61.59c-1.77,0-3.35-.4-4.72-1.2-1.37-.83-2.43-1.94-3.22-3.35-.77-1.43-1.15-3.07-1.15-4.91s.38-3.52,1.11-4.95c.75-1.43,1.83-2.54,3.18-3.35,1.36-.83,2.9-1.24,4.65-1.24s3.39.4,4.71,1.17c1.3.75,2.31,1.81,3.01,3.16.73,1.36,1.09,2.99,1.09,4.87v1.36l-15.43.04.08-2.84h10.95c0-1.24-.4-2.24-1.2-2.99-.77-.75-1.83-1.13-3.16-1.13-1.04,0-1.92.23-2.65.66-.7.43-1.24,1.09-1.6,1.96-.36.87-.55,1.94-.55,3.2,0,1.94.41,3.41,1.24,4.4.85,1,2.09,1.49,3.75,1.49,1.2,0,2.2-.23,2.97-.7.81-.45,1.34-1.11,1.58-1.96h4.1c-.38,1.96-1.36,3.5-2.92,4.63-1.52,1.11-3.46,1.67-5.82,1.67v.02Z"/></svg>