<?xml version="1.0" encoding="UTF-8"?><svg id="Layer_1" xmlns="http://www.w3.org/2000/svg" width="160" height="100" viewBox="0 0 160 100"><g id="Layer_2"><g id="Layer_1-2"><path d="M19.11,42.04c-.04-.14-.05-.28-.05-.43,0-.26.09-.38.28-.38.4,0,.4.69.97,1.82.8,1.52,2.39,2.45,4.11,2.38,2.43,0,3.94-1.46,3.94-3.59s-1.32-2.79-3.92-3.54c-3.31-.97-4.87-2.08-4.87-4.74,0-2.48,2.01-4.32,5.2-4.32,1.84,0,2.91.73,3.24.73.28,0,.5-.26.64-.26.07,0,.14.12.16.33l.33,2.88c.02.1.03.2.02.31,0,.21-.07.33-.28.33-.45,0-.35-.61-.87-1.42-.97-1.54-2.03-2.2-3.71-2.2-2.03,0-3.5,1.25-3.5,2.93,0,1.91,1.25,2.41,3.47,3.12,1.65.52,2.98.94,3.8,1.7,1.03.93,1.58,2.28,1.51,3.66,0,2.95-2.13,4.94-5.81,4.94-2.34,0-3.99-.76-4.16-1.61l-.52-2.64Z"/><path d="M55.01,39.5h-4.06c-.36,0-.53-.09-.53-.28,0-.14.05-.27.13-.38l2.3-4.91c.08-.17.19-.23.28-.23s.19.09.26.26l1.93,4.97c.05.11.09.24.11.36,0,.13-.15.21-.4.21M40.21,39.5h-4.06c-.36,0-.53-.09-.53-.28,0-.14.05-.27.13-.38l2.3-4.91c.08-.17.19-.23.28-.23s.19.09.26.26l1.93,4.97c.05.11.09.24.11.36,0,.13-.15.21-.4.21M49.4,46.05c.23,0,.34-.06.34-.25,0-.36-.4-.23-.77-.38-.53-.21-.79-.55-.79-.94.03-.38.14-.75.32-1.08l1.04-2.25c.23-.51.38-.79.96-.79h4.78c.55,0,.72.17.91.66l1.11,2.87c.12.25.19.53.21.81,0,.38-.23.57-.7.74-.3.11-.49.13-.49.38,0,.13.1.24.23.26.66-.09,1.32-.14,1.98-.15,1.32,0,2.15.13,2.44.13.19,0,.28-.06.28-.25,0-.36-.49-.23-.98-.45-.68-.28-1.06-.96-1.47-2l-4.82-12.29c-.09-.21-.13-.34-.28-.34-.17,0-.23.09-.34.3l-5.89,12.58c-.26.61-.63,1.16-1.11,1.62-.24.24-.61.29-.9.13-.68-.28-1.06-.96-1.47-2l-4.82-12.29c-.09-.21-.13-.34-.28-.34-.17,0-.23.09-.34.3l-5.89,12.58c-.24.62-.62,1.17-1.11,1.62-.36.28-.85.26-.85.55,0,.14.11.26.25.28.4-.06.79-.1,1.19-.13,1.19,0,2.02.13,2.42.13.23,0,.34-.06.34-.25,0-.36-.4-.23-.77-.38-.53-.21-.79-.55-.79-.94.03-.38.14-.75.32-1.08l1.04-2.25c.23-.51.38-.79.96-.79h4.78c.55,0,.72.17.91.66l1.11,2.87c.12.25.19.53.21.81,0,.38-.23.57-.7.74-.3.11-.49.13-.49.38,0,.11.11.26.23.26,1.36-.08,2.61-.16,3.94-.16s3.24.13,3.7.14"/><path d="M66.26,32.64c0-.4-.15-.53-.6-.53h-2.95c-.79,0-1.23.38-1.59,1.21-.23.57-.19,1.04-.53,1.04-.17,0-.21-.08-.21-.28,0-.12,0-.24.02-.36l.23-2.15c.04-.42.19-.45.7-.45.47,0,1.3.13,2.51.13h6.63c1.34,0,2.25-.13,2.72-.13.3,0,.42.11.45.36l.15,1.93v.15c0,.26-.06.4-.26.4-.38,0-.23-.55-.47-1-.36-.59-1.03-.93-1.72-.87h-2.76c-.49,0-.66.11-.66.55v10.78c0,1.06.04,1.47.81,1.81.7.32,1.17.15,1.17.53,0,.21-.15.32-.47.32-.62,0-1.42-.15-2.42-.15-1.21,0-2,.19-2.36.19-.26,0-.4-.11-.4-.3,0-.47.68-.3,1.25-.55.77-.34.77-.81.77-1.93v-10.72Z"/><path d="M82.36,46.33c-4.49,0-7.23-2.89-7.23-7.5-.06-2.17.72-4.27,2.19-5.87,1.34-1.39,3.22-2.14,5.14-2.04,1.23,0,2.45.25,3.57.77.76.34,1.19.83,1.49.83.17,0,.34-.19.49-.19.13,0,.19.15.21.43l.21,2.21c.02.14.02.28.02.43,0,.23-.04.36-.23.36-.38,0-.45-.66-.85-1.32-1.21-1.91-2.98-2.93-4.89-2.93-3.27,0-5.59,2.57-5.59,6.46,0,4.57,2.51,7.63,5.8,7.63,1.57-.02,3.07-.63,4.21-1.7.83-.79.96-1.64,1.32-1.64.11,0,.19.13.19.3-.01.12-.03.23-.06.34l-.42,1.74c-1.61,1.17-3.57,1.77-5.57,1.7"/><path d="M92.33,33.95c0-.91-.04-1.47-.66-1.91-.6-.42-1.28-.19-1.28-.6,0-.25.13-.32.45-.32.4,0,1.13.13,2.17.13.78,0,1.56-.04,2.34-.13.21,0,.34.13.34.28,0,.42-.7.3-1.21.72-.49.42-.51.96-.51,1.83v3.25c0,.49.09.53.55.53h7.06c.47,0,.57-.04.57-.53v-3.23c0-.91-.04-1.47-.66-1.91-.6-.42-1.28-.21-1.28-.62,0-.25.13-.3.45-.3.57,0,1.36.13,2.36.13.72,0,1.43-.05,2.15-.13.21,0,.34.13.34.28,0,.43-.7.28-1.21.7-.49.42-.51.96-.51,1.83v9.23c0,.96.09,1.55.68,2,.57.43,1.25.17,1.25.62,0,.25-.13.3-.45.3-.68,0-1.45-.13-2.3-.13-.75,0-1.49.05-2.23.13-.21,0-.32-.11-.32-.28,0-.4.62-.32,1.15-.79.55-.49.57-1.02.57-1.87v-4.12c0-.38-.17-.45-.57-.45h-7.06c-.4,0-.55.06-.55.45v4.14c0,.96.09,1.55.68,2,.57.43,1.25.17,1.25.62,0,.25-.13.3-.45.3-.68,0-1.45-.13-2.3-.13-.74,0-1.48.05-2.21.13-.21,0-.34-.11-.34-.28,0-.4.62-.32,1.15-.79.55-.49.57-1.02.57-1.87v-9.21Z"/><path d="M109.65,33.95c0-.91-.04-1.47-.64-1.91-.57-.45-1.21-.17-1.21-.64,0-.21.13-.28.42-.28.34,0,1.06.13,2.13.13.79,0,1.58-.04,2.36-.13.21,0,.34.13.34.28,0,.42-.72.3-1.23.72-.49.42-.49.96-.49,1.83v9.23c0,.96.06,1.55.66,2,.57.43,1.25.17,1.25.62,0,.25-.13.3-.45.3-.68,0-1.42-.13-2.3-.13-.75,0-1.49.05-2.23.13-.21,0-.34-.11-.34-.28,0-.4.62-.32,1.15-.79.55-.49.57-1.02.57-1.87v-9.21Z"/><path d="M127.55,37.95c-1.08-1.28-1.68-2.08-2.27-2.08-1.13,0-2.67,1.3-2.67,3.19.05,1.44.66,2.81,1.7,3.8,1.17,1.21,2.78,1.89,4.46,1.89,1.51,0,2.98-.51,4.16-1.46-1.91-1.66-3.71-3.44-5.39-5.34M127.79,46.2c-3.8,0-6.47-2.57-6.47-6.19,0-2.46,1.47-4.11,3.95-4.82-.63-.73-1-1.66-1.04-2.62,0-1.82,1.49-3.14,3.61-3.14.88.04,1.76.23,2.58.57.19,0,.38-.21.54-.21s.21.19.24.59l.09,2.03v.07c0,.26-.12.4-.26.4-.33,0-.33-.57-.76-1.18-.58-1-1.63-1.64-2.79-1.68-.98-.06-1.83.68-1.89,1.66,0,.07,0,.14,0,.2,0,1.56,2.88,4.65,8.45,9.92.35-.44.61-.95.76-1.5.33-1.39-.12-1.71-1.05-2.12-.56-.25-1.28-.09-1.28-.5,0-.24.21-.28.61-.28.33,0,1.16.11,2.08.09,1.23-.02,2.52-.24,2.55.13.07.69-1.7.36-1.88,1.43-.15.92.05,1.49-1.15,3.33,2.13,1.84,3.42,2.86,4.16,2.86.27-.04.54-.09.8-.16.13,0,.24.11.24.24,0,.33-.73.83-1.89.83-1.39,0-2.67-.87-4.46-2.34-1.51,1.56-3.6,2.43-5.77,2.38"/><path d="M31.91,64.34c-.04-.14-.05-.28-.05-.43,0-.26.09-.38.28-.38.4,0,.4.69.97,1.82.8,1.52,2.39,2.45,4.11,2.38,2.43,0,3.94-1.46,3.94-3.59s-1.32-2.79-3.92-3.54c-3.31-.97-4.87-2.08-4.87-4.75,0-2.48,2.01-4.32,5.2-4.32,1.84,0,2.91.73,3.24.73.28,0,.5-.26.64-.26.07,0,.14.12.17.33l.33,2.88c.02.1.03.2.02.31,0,.21-.07.33-.28.33-.45,0-.35-.61-.87-1.42-.97-1.54-2.03-2.2-3.71-2.2-2.03,0-3.5,1.25-3.5,2.93,0,1.91,1.25,2.41,3.47,3.12,1.65.52,2.98.94,3.8,1.7,1.03.93,1.58,2.28,1.51,3.66,0,2.95-2.13,4.94-5.81,4.94-2.34,0-3.99-.76-4.16-1.61l-.52-2.64Z"/><path d="M67.82,61.8h-4.06c-.36,0-.53-.09-.53-.28,0-.14.05-.27.13-.38l2.3-4.91c.08-.17.19-.23.28-.23s.19.09.25.26l1.93,4.97c.05.11.09.24.11.36,0,.13-.15.21-.4.21M53.02,61.8h-4.06c-.36,0-.53-.09-.53-.28,0-.14.05-.27.13-.38l2.3-4.91c.09-.17.19-.23.28-.23s.19.09.26.26l1.93,4.97c.05.11.09.24.11.36,0,.13-.15.21-.4.21M62.2,68.35c.23,0,.34-.06.34-.25,0-.36-.4-.23-.77-.38-.53-.21-.79-.55-.79-.94.03-.38.14-.75.32-1.08l1.04-2.25c.23-.51.38-.79.96-.79h4.78c.55,0,.72.17.91.66l1.11,2.87c.12.25.19.53.21.81,0,.38-.23.57-.7.74-.3.11-.49.13-.49.38,0,.13.1.24.23.26.66-.09,1.32-.14,1.98-.15,1.32,0,2.15.13,2.44.13.19,0,.28-.06.28-.25,0-.36-.49-.23-.98-.45-.68-.28-1.06-.96-1.47-2l-4.82-12.29c-.09-.21-.13-.34-.28-.34-.17,0-.23.09-.34.3l-5.89,12.58c-.26.61-.63,1.16-1.11,1.62-.24.24-.61.29-.9.13-.68-.28-1.06-.96-1.47-2l-4.82-12.29c-.09-.21-.13-.34-.28-.34-.17,0-.23.09-.34.3l-5.89,12.58c-.24.62-.62,1.17-1.11,1.62-.36.28-.85.26-.85.55,0,.14.11.26.25.28.4-.06.79-.1,1.19-.13,1.19,0,2.02.13,2.42.13.23,0,.34-.06.34-.25,0-.36-.4-.23-.77-.38-.53-.21-.79-.55-.79-.94.03-.38.14-.75.32-1.08l1.04-2.25c.23-.51.38-.79.96-.79h4.78c.55,0,.72.17.91.66l1.11,2.87c.12.25.19.53.21.81,0,.38-.23.57-.7.74-.3.11-.49.13-.49.38,0,.11.11.26.23.26,1.36-.08,2.61-.16,3.94-.16s3.24.13,3.7.14"/><path d="M79.07,54.93c0-.4-.15-.53-.6-.53h-2.95c-.79,0-1.23.38-1.59,1.21-.23.57-.19,1.04-.53,1.04-.17,0-.21-.08-.21-.28,0-.12,0-.24.02-.36l.23-2.15c.04-.42.19-.45.7-.45.47,0,1.3.13,2.51.13h6.63c1.34,0,2.25-.13,2.72-.13.3,0,.43.11.45.36l.15,1.93v.15c0,.26-.06.4-.26.4-.38,0-.23-.55-.47-1-.36-.59-1.03-.93-1.72-.87h-2.76c-.49,0-.66.11-.66.55v10.78c0,1.06.04,1.47.81,1.81.7.32,1.17.15,1.17.53,0,.21-.15.32-.47.32-.62,0-1.42-.15-2.42-.15-1.21,0-2,.19-2.36.19-.25,0-.4-.11-.4-.3,0-.47.68-.3,1.25-.55.77-.34.77-.81.77-1.93v-10.72Z"/><path d="M95.16,68.62c-4.49,0-7.23-2.89-7.23-7.5-.06-2.17.72-4.27,2.19-5.87,1.34-1.39,3.22-2.14,5.14-2.04,1.23,0,2.45.25,3.57.77.76.34,1.19.83,1.49.83.17,0,.34-.19.49-.19.13,0,.19.15.21.43l.21,2.21c.02.14.02.28.02.43,0,.23-.04.36-.23.36-.38,0-.45-.66-.85-1.32-1.21-1.91-2.98-2.93-4.89-2.93-3.27,0-5.59,2.57-5.59,6.46,0,4.57,2.51,7.63,5.8,7.63,1.57-.02,3.07-.63,4.21-1.7.83-.79.96-1.64,1.32-1.64.11,0,.19.13.19.3-.01.12-.03.23-.06.34l-.43,1.74c-1.61,1.17-3.58,1.77-5.57,1.7"/><path d="M105.13,56.25c0-.91-.04-1.47-.66-1.91-.6-.42-1.28-.19-1.28-.6,0-.25.13-.32.45-.32.4,0,1.13.13,2.17.13.78,0,1.56-.04,2.34-.13.21,0,.34.13.34.28,0,.42-.7.3-1.21.72-.49.42-.51.96-.51,1.83v3.25c0,.49.08.53.55.53h7.06c.47,0,.57-.04.57-.53v-3.23c0-.91-.04-1.47-.66-1.91-.6-.42-1.28-.21-1.28-.62,0-.25.13-.3.45-.3.57,0,1.36.13,2.36.13.72,0,1.43-.05,2.15-.13.21,0,.34.13.34.28,0,.43-.7.28-1.21.7-.49.42-.51.96-.51,1.83v9.23c0,.96.09,1.55.68,2,.58.43,1.26.17,1.26.62,0,.25-.13.3-.45.3-.68,0-1.45-.13-2.3-.13-.75,0-1.49.05-2.23.13-.21,0-.32-.11-.32-.28,0-.4.62-.32,1.15-.79.55-.49.57-1.02.57-1.87v-4.12c0-.38-.17-.45-.57-.45h-7.06c-.4,0-.55.06-.55.45v4.14c0,.96.08,1.55.68,2,.57.43,1.25.17,1.25.62,0,.25-.13.3-.45.3-.68,0-1.45-.13-2.3-.13-.74,0-1.48.05-2.21.13-.21,0-.34-.11-.34-.28,0-.4.62-.32,1.15-.79.55-.49.57-1.02.57-1.87v-9.21Z"/><path d="M122.45,56.25c0-.91-.04-1.47-.64-1.91-.57-.45-1.21-.17-1.21-.64,0-.21.13-.28.42-.28.34,0,1.06.13,2.13.13.79,0,1.58-.04,2.36-.13.21,0,.34.13.34.28,0,.42-.72.3-1.23.72-.49.42-.49.96-.49,1.83v9.23c0,.96.06,1.55.66,2,.57.43,1.25.17,1.25.62,0,.25-.13.3-.45.3-.68,0-1.42-.13-2.3-.13-.75,0-1.49.05-2.23.13-.21,0-.34-.11-.34-.28,0-.4.62-.32,1.15-.79.55-.49.57-1.02.57-1.87v-9.21Z"/></g></g></svg>