<?xml version="1.0" encoding="UTF-8"?><svg id="Layer_1" xmlns="http://www.w3.org/2000/svg" width="160" height="100" viewBox="0 0 160 100"><path d="M56.94,39.01c3.74-8.35,12.31-14.88,21.53-15.7.12-.01.23-.02.11.11-1.11,1.16-3.26,2.58-4.58,3.73-5.48,4.75-10.62,9.92-15.36,15.4h2.79c.46-.51.9-1.08,1.37-1.58,4.75-5.08,9.76-9.99,15.15-14.4.96-.79,3.17-2.75,4.14-3.23.65-.32,2.43-.02,3.21.09,2.49.35,5.35,1.17,7.61,2.28.29.14,1.16.44,1.07.78-.03.11-1.07,1.72-1.18,1.83-6.07,4.18-11.74,8.97-16.9,14.23h2.89c3.11-2.86,6.19-5.76,9.57-8.31l-6.99,8.31h2.68c2.93-3.08,5.62-6.4,8.19-9.79.64-.84,1.33-2.11,2.01-2.83.24-.25,2.55-1.79,2.74-1.79,2.45,1.73,4.64,3.88,6.33,6.36,0,.16-1.5,2.48-1.7,2.68-1.02.99-3.21,2.25-4.46,3.22-.86.66-1.8,1.36-2.54,2.14l5.79-.05,2.73-3.79,1.95-1.31c.32,0,2.07,4.48,2.16,5.15h2.1c-.22-1.48-.85-3-1.45-4.38-.13-.3-.97-1.76-.85-1.92,1.63-.79,3.32-1.78,5.1-2.21.92-.22,2.99-.64,3.19.68.22,1.41-.37,3.06-.89,4.35l-1.73,3.47h2.42c1.2-2.52,4.02-7.93,1.15-10.14-2.69-2.07-7.8.77-10.41,2.04.49-1.12,1.13-2.16,1.6-3.29,3.15-7.6-.42-10.1-7.53-7-.99.43-1.92,1.02-2.91,1.46.34-.99.96-1.91,1.39-2.87,1.22-2.78,2.9-8.25-1.7-8.8-.3-.04-.85-.03-1.16,0-4.7.39-10.1,4.63-13.96,7.12-12.96-.24-24.95,8.96-28.12,21.47h2.05c.54-1.13.88-2.38,1.4-3.54ZM102.96,25.28c.34-.09.76-.22,1.11-.26.59-.07,1.85-.17,2.22.35.98,1.36-.97,5.75-1.83,7.08-1.56-2.03-3.37-3.86-5.42-5.41-.01-.29,3.43-1.63,3.92-1.76ZM93.38,16.66c1.09-.37,3.97-1.3,4.26.42.39,2.33-1.53,5.3-2.4,7.38-.13.09-2.54-1.14-2.94-1.31-2.32-.94-4.78-1.52-7.26-1.89,2.57-1.68,5.41-3.61,8.33-4.6Z"/><path d="M45.65,55.28l9.03.02,1.49,2.5h7l-8.1-14.25-9.53.04-8.14,14.1v.11l6.66-.02c.14-.05.31-.4.4-.54.2-.33.82-1.71.98-1.86.06-.06.12-.11.21-.1ZM50.17,47.07l2.47,4.42h-5.05l2.58-4.42Z"/><path d="M84.31,76.72c6.64-5.42,12.97-11.31,18.62-17.77h-2.79c-5.93,6.49-12.4,12.51-19.41,17.82-2.82.1-5.81-.56-8.47-1.52-1.06-.38-2.31-.9-3.28-1.45-.08-.04-.2.02-.12-.17.09-.23,1.11-1.77,1.31-1.96.53-.51,1.7-1.15,2.36-1.64,4.57-3.43,8.96-7.09,13.06-11.08h-3.1c-2.48,2.37-5.06,4.64-7.78,6.73l5.52-6.73h-2.68c-3.23,3.5-6.19,7.27-8.89,11.2l-2.7,1.72c-2.49-1.68-4.67-3.85-6.35-6.34,0-.17,1.5-2.46,1.73-2.69.67-.65,2.07-1.45,2.89-2.06.79-.59,1.59-1.18,2.33-1.83h-5.1c-.62.59-1.12,1.83-1.67,2.38-.46.46-1.52.89-2.07,1.3l-1.63-3.68h-2.16l2,4.84c-1.41.63-2.75,1.44-4.23,1.92-.9.29-3.28.96-3.92.08-1.01-1.39.97-5.41,1.63-6.83h-2.26c-1.08,2-2.6,5.93-1.15,7.98,1.52,2.15,4.71,1.39,6.8.61l4.29-1.97c-1.29,2.45-4.09,7.66-2.21,10.25,1.89,2.6,6.14.93,8.49-.14.87-.39,1.68-.92,2.56-1.28-.95,2.01-2.12,3.99-2.58,6.2-.45,2.15-.29,4.7,2.26,5.31,4.53,1.1,12.02-4.5,15.67-6.95,12.51.18,23.95-8.22,27.78-20.02h-2.31c-3.18,9.61-12.32,16.75-22.41,17.77ZM63.8,73.15c-1.95.83-4.25,2.19-6.46,1.88-1.81-.25-.64-3.57-.25-4.64.35-.96.87-1.86,1.24-2.81,1.13,1.19,2.15,2.5,3.36,3.63.57.53,1.46,1.09,1.95,1.62.1.1.19.15.15.32ZM72.81,81.89c-1.44.68-2.9,1.49-4.47,1.84-1.03.23-2.9.63-3.07-.86-.28-2.44,1.4-5.18,2.43-7.3,3.21,1.54,6.61,2.82,10.19,3.15l-5.08,3.17Z"/><path d="M83.89,47.65c.34-3.41-1.84-3.84-4.68-4.16h-15.52v14.3h15.42c2.42-.25,4.99-.56,5.21-3.52.22-3.11-1.52-3.54-4.21-3.74.31-.31.99-.27,1.45-.39,1.35-.34,2.19-1.05,2.33-2.51ZM69.9,47.18c1.95.1,4.01-.13,5.95,0,.73.05,1.99.08,1.95,1.11-.02.4-.44.79-.8.79h-7.1v-1.89ZM78,53.64c-.08.09-.8.37-.89.37h-7.21v-2c1.99.09,4.07-.12,6.05,0,.49.03,1.75.11,2.05.47.25.3.27.87,0,1.16Z"/><polygon points="103.67 47.18 103.67 43.5 86 43.5 86 57.8 103.67 57.8 103.67 54.01 92.2 54.01 92.2 52.54 103.67 52.54 103.67 48.76 92.2 48.76 92.2 47.18 103.67 47.18"/><polygon points="112.03 53.49 111.88 53.33 111.88 43.5 105.77 43.5 105.77 57.8 122.61 57.8 122.61 53.49 112.03 53.49"/></svg>