<?xml version="1.0" encoding="UTF-8"?><svg id="Layer_1" xmlns="http://www.w3.org/2000/svg" width="160" height="100" viewBox="0 0 160 100"><g id="Petdirect_x5F_Logo_x5F_Vert_x5F_RGB"><g id="Layer_1-2"><path d="M107.2,35.75c-2.02.09-3.48,1.48-3.88,4.11-.9,5.88-3.9,10.1-10.19,10.1-5.77,0-10.77-4.4-10.77-10.21v-11.33l5.41,4.82c1.41,1.28,3.54,1.57,5.18.61,2.2-1.3,2.42-3.95.65-5.52l-13.53-12c-.49-.45-1.14-.67-1.79-.7-.65,0-1.28.25-1.79.7l-13.53,12c-1.75,1.57-1.55,4.22.65,5.52,1.64.96,3.77.67,5.18-.61l5.41-4.82v11.33c0,5.81-5,10.21-10.77,10.21-6.28,0-9.31-4.22-10.19-10.1-.4-2.63-1.84-4.02-3.88-4.11-2.27-.11-4.29,1.5-4.29,3.97-.04,9.13,6.91,18.2,18.64,18.2,5.9,0,11.15-2.69,14.56-6.89,3.41,4.2,8.66,6.89,14.56,6.89,11.73,0,18.71-9.06,18.64-18.22-.02-2.47-2.02-4.06-4.29-3.95"/><path d="M32.55,68.15h2.98c1.62,0,2.51.83,2.51,2.36s-.92,2.33-2.51,2.33h-2.98v-4.69ZM35.76,64.92h-6.93v16.94h3.72v-5.79h3.21c3.77,0,6.01-2.09,6.01-5.56s-2.27-5.59-6.01-5.59"/><path d="M46.28,74.21c.31-1.3,1.14-2,2.36-2s1.95.79,2.02,2h-4.38ZM48.61,69.18c-3.46,0-5.97,2.74-5.97,6.48s2.42,6.46,6.04,6.46c2.98,0,5.05-1.62,5.52-4.35l.02-.16h-3.41l-.02.11c-.31,1.17-1.32,1.41-2.11,1.41-1.39,0-2.33-1.01-2.49-2.63h8.08v-1.17c0-3.81-2.18-6.17-5.65-6.17"/><path d="M61.94,78.87c-.83,0-1.26-.4-1.26-1.23v-5.18h2.69v-2.98h-2.67v-3.28h-3.61v3.28h-1.84v2.98h1.84v5.61c0,2.6,1.48,4.04,4.15,4.04.94,0,1.77-.13,2.24-.4l.07-.04v-3.05c0-.07-.02-.11-.07-.13s-.11-.02-.16.02c-.36.22-.9.38-1.39.38"/><path d="M126.11,78.87c-.83,0-1.23-.4-1.23-1.23v-5.18h2.67v-2.98h-2.67v-3.28h-3.61v3.28h-1.84v2.98h1.84v5.61c0,2.6,1.48,4.04,4.15,4.04.94,0,1.77-.13,2.24-.4l.07-.04v-3.05c0-.07-.02-.11-.07-.13-.04-.02-.11-.02-.16.02-.36.22-.9.38-1.39.38"/><path d="M71.25,78.92c-1.66,0-2.76-1.3-2.76-3.25s1.1-3.28,2.76-3.28c.9,0,1.77.54,2.13,1.3v3.93c-.38.79-1.21,1.3-2.13,1.3M73.38,70.26c-.61-.56-1.68-1.08-2.89-1.08-3.39,0-5.65,2.6-5.65,6.48s2.27,6.46,5.65,6.46c1.21,0,2.29-.52,2.89-1.08v.81h3.68v-17.93h-3.68v6.33h0Z"/><rect x="79.42" y="69.45" width="3.63" height="12.41"/><path d="M81.24,64.02c-1.21,0-2.15.92-2.15,2.06s.94,2.06,2.15,2.06,2.11-.92,2.11-2.06-.94-2.06-2.11-2.06"/><path d="M91.65,69.18c-1.03,0-1.97.43-2.58,1.17v-.9h-3.63v12.41h3.63v-7.65c.22-.99,1.03-1.59,2.18-1.59.61,0,1.19.13,1.62.38.04.02.11.02.13,0,.04-.02.07-.07.07-.16v-3.41l-.07-.04c-.22-.11-.79-.2-1.35-.2"/><path d="M97.28,74.21c.31-1.3,1.14-2,2.36-2s1.95.79,2.02,2h-4.38ZM99.61,69.18c-3.46,0-5.97,2.74-5.97,6.48s2.42,6.46,6.04,6.46c2.98,0,5.05-1.62,5.52-4.35l.02-.16h-3.39l-.02.11c-.31,1.17-1.32,1.41-2.13,1.41-1.39,0-2.33-1.01-2.49-2.63h8.08v-1.17c0-3.81-2.18-6.17-5.65-6.17"/><path d="M112.94,72.34c1.01,0,1.68.49,1.88,1.39l.02.11h3.59l-.02-.16c-.38-2.78-2.47-4.49-5.45-4.49-3.52,0-5.97,2.67-5.97,6.48s2.47,6.46,5.97,6.46c2.98,0,5.09-1.73,5.45-4.49l.02-.16h-3.59l-.02.11c-.18.88-.88,1.39-1.88,1.39-1.44,0-2.36-1.3-2.36-3.32s.92-3.37,2.36-3.34"/></g></g></svg>