<?xml version="1.0" encoding="UTF-8"?><svg id="Layer_1" xmlns="http://www.w3.org/2000/svg" width="160" height="100" viewBox="0 0 160 100"><g id="Layer_2"><g id="Layer_1-2"><path d="M2.8,52.97c-.03-.1-.04-.2-.03-.3,0-.18.07-.26.2-.26.28,0,.28.48.68,1.27.56,1.06,1.67,1.71,2.87,1.67,1.7,0,2.76-1.02,2.76-2.51s-.92-1.95-2.74-2.47c-2.31-.67-3.4-1.45-3.4-3.31,0-1.73,1.4-3.02,3.63-3.02,1.29,0,2.03.51,2.26.51.2,0,.35-.18.45-.18.05,0,.1.08.11.23l.23,2.01c.01.07.02.14.02.21,0,.15-.05.23-.2.23-.31,0-.25-.43-.61-.99-.68-1.07-1.42-1.53-2.59-1.53-1.42,0-2.44.87-2.44,2.04,0,1.34.87,1.68,2.43,2.18,1.16.36,2.08.66,2.66,1.19.72.65,1.1,1.59,1.06,2.56,0,2.06-1.48,3.45-4.06,3.45-1.63,0-2.79-.53-2.9-1.12l-.36-1.85Z"/><path d="M27.89,51.2h-2.84c-.25,0-.37-.06-.37-.19,0-.1.04-.19.09-.27l1.6-3.43c.06-.12.13-.16.19-.16s.13.06.18.18l1.35,3.47c.04.08.06.16.08.25,0,.09-.1.15-.28.15M17.55,51.2h-2.84c-.25,0-.37-.06-.37-.19,0-.1.04-.19.09-.27l1.6-3.43c.06-.12.13-.16.19-.16s.13.06.18.18l1.35,3.47c.04.08.06.16.08.25,0,.09-.1.15-.28.15M23.97,55.77c.16,0,.24-.04.24-.18,0-.25-.28-.16-.53-.27-.37-.15-.55-.39-.55-.65.02-.26.1-.52.22-.76l.73-1.57c.16-.36.27-.55.67-.55h3.34c.39,0,.5.12.64.46l.77,2c.08.18.13.37.15.56,0,.27-.16.4-.49.52-.21.08-.34.09-.34.27,0,.09.07.17.16.18.46-.06.92-.1,1.38-.1.92,0,1.5.09,1.71.09.13,0,.19-.04.19-.18,0-.25-.34-.16-.68-.31-.47-.19-.74-.67-1.02-1.4l-3.37-8.58c-.06-.15-.09-.24-.19-.24-.12,0-.16.06-.24.21l-4.12,8.79c-.18.42-.44.81-.77,1.13-.16.17-.42.21-.63.09-.47-.2-.74-.67-1.02-1.4l-3.37-8.58c-.06-.15-.09-.24-.19-.24-.12,0-.16.06-.24.21l-4.11,8.79c-.17.43-.43.82-.77,1.13-.25.19-.59.18-.59.39,0,.1.08.18.18.19.28-.04.55-.07.83-.09.83,0,1.41.09,1.69.09.16,0,.24-.04.24-.18,0-.25-.28-.16-.53-.27-.37-.15-.55-.39-.55-.65.02-.27.1-.52.22-.76l.73-1.57c.16-.36.27-.55.67-.55h3.34c.39,0,.5.12.64.46l.77,2c.08.18.13.37.15.56,0,.27-.16.4-.49.52-.21.08-.34.09-.34.27,0,.08.08.18.16.18.95-.05,1.82-.11,2.75-.11s2.26.09,2.59.1"/><path d="M35.74,46.4c0-.28-.1-.37-.42-.37h-2.06c-.55,0-.86.27-1.11.85-.16.4-.13.73-.37.73-.12,0-.15-.06-.15-.19,0-.08,0-.17.01-.25l.16-1.5c.03-.3.13-.31.49-.31.33,0,.91.09,1.75.09h4.63c.94,0,1.57-.09,1.9-.09.21,0,.3.07.31.25l.1,1.35v.11c0,.18-.04.28-.18.28-.26,0-.16-.39-.33-.7-.25-.41-.72-.65-1.2-.61h-1.93c-.34,0-.46.08-.46.39v7.53c0,.74.03,1.02.56,1.26.49.22.82.1.82.37,0,.15-.1.22-.33.22-.43,0-.99-.1-1.69-.1-.85,0-1.4.13-1.65.13-.18,0-.28-.08-.28-.21,0-.33.48-.21.88-.39.53-.24.53-.56.53-1.35v-7.49Z"/><path d="M46.99,55.97c-3.13,0-5.05-2.02-5.05-5.24-.04-1.51.5-2.98,1.53-4.1.94-.97,2.25-1.49,3.59-1.43.86,0,1.71.18,2.49.53.53.24.83.58,1.04.58.12,0,.24-.13.34-.13.09,0,.13.1.15.3l.15,1.54c.01.1.02.2.01.3,0,.16-.03.25-.16.25-.27,0-.31-.46-.59-.92-.85-1.34-2.08-2.05-3.42-2.05-2.29,0-3.9,1.8-3.9,4.51,0,3.19,1.75,5.33,4.05,5.33,1.09-.01,2.14-.44,2.94-1.19.58-.55.67-1.14.92-1.14.08,0,.13.09.13.21,0,.08-.02.16-.04.24l-.3,1.22c-1.13.82-2.5,1.24-3.89,1.19"/><path d="M53.95,47.32c0-.64-.03-1.02-.46-1.34-.42-.3-.89-.13-.89-.42,0-.18.09-.22.31-.22.28,0,.79.09,1.51.09.55,0,1.09-.03,1.63-.09.15,0,.24.09.24.19,0,.3-.49.21-.85.5-.34.3-.36.67-.36,1.28v2.27c0,.34.06.37.39.37h4.93c.33,0,.4-.03.4-.37v-2.25c0-.64-.03-1.02-.46-1.34-.42-.3-.89-.15-.89-.43,0-.18.09-.21.31-.21.4,0,.95.09,1.65.09.5,0,1-.03,1.5-.09.15,0,.24.09.24.19,0,.3-.49.19-.85.49-.34.3-.36.67-.36,1.28v6.44c0,.67.06,1.08.48,1.4.4.3.88.12.88.43,0,.18-.09.21-.31.21-.48,0-1.01-.09-1.6-.09-.52,0-1.04.03-1.56.09-.15,0-.22-.08-.22-.19,0-.28.43-.22.8-.55.39-.34.4-.71.4-1.31v-2.88c0-.27-.12-.31-.4-.31h-4.93c-.28,0-.39.05-.39.31v2.9c0,.67.06,1.08.48,1.4.4.3.88.12.88.43,0,.18-.09.21-.31.21-.48,0-1.01-.09-1.6-.09-.52,0-1.03.03-1.54.09-.15,0-.24-.08-.24-.19,0-.28.43-.22.8-.55.39-.34.4-.71.4-1.31v-6.43Z"/><path d="M66.05,47.32c0-.64-.03-1.02-.45-1.34-.4-.31-.85-.12-.85-.45,0-.15.09-.19.3-.19.24,0,.74.09,1.48.09.55,0,1.1-.03,1.65-.09.15,0,.24.09.24.19,0,.3-.51.21-.86.5-.34.3-.34.67-.34,1.28v6.44c0,.67.04,1.08.46,1.4.4.3.88.12.88.43,0,.18-.09.21-.31.21-.48,0-.99-.09-1.6-.09-.52,0-1.04.03-1.56.09-.15,0-.24-.08-.24-.19,0-.28.43-.22.8-.55.39-.34.4-.71.4-1.31v-6.43Z"/><path d="M78.56,50.12c-.76-.89-1.17-1.45-1.58-1.45-.79,0-1.87.91-1.87,2.23.03,1.01.46,1.96,1.19,2.66.82.84,1.94,1.32,3.12,1.32,1.06,0,2.08-.36,2.91-1.02-1.34-1.16-2.59-2.4-3.76-3.73M78.72,55.88c-2.66,0-4.52-1.8-4.52-4.32,0-1.72,1.02-2.87,2.76-3.37-.44-.51-.7-1.16-.73-1.83,0-1.27,1.04-2.2,2.52-2.2.62.03,1.23.16,1.8.4.13,0,.26-.15.38-.15s.15.13.17.41l.07,1.42v.05c0,.18-.08.28-.18.28-.23,0-.23-.4-.53-.82-.4-.7-1.14-1.14-1.95-1.17-.68-.04-1.28.48-1.32,1.16,0,.05,0,.09,0,.14,0,1.09,2.01,3.25,5.91,6.93.25-.31.43-.66.53-1.04.23-.97-.08-1.2-.73-1.48-.39-.17-.89-.07-.89-.35,0-.17.15-.2.43-.2.23,0,.81.08,1.45.07.86-.01,1.76-.17,1.78.09.05.48-1.19.25-1.31,1-.1.64.04,1.04-.8,2.33,1.48,1.29,2.39,2,2.9,2,.19-.03.38-.06.56-.11.09,0,.17.07.17.16,0,.23-.51.58-1.32.58-.97,0-1.86-.61-3.12-1.63-1.05,1.09-2.51,1.69-4.03,1.67"/><path d="M91.32,52.97c-.03-.1-.04-.2-.03-.3,0-.18.07-.26.2-.26.28,0,.28.48.68,1.27.56,1.06,1.67,1.71,2.87,1.67,1.7,0,2.76-1.02,2.76-2.51s-.92-1.95-2.74-2.47c-2.31-.68-3.4-1.45-3.4-3.32,0-1.73,1.4-3.02,3.63-3.02,1.29,0,2.03.51,2.26.51.2,0,.35-.18.45-.18.05,0,.1.08.12.23l.23,2.01c.01.07.02.14.02.21,0,.15-.05.23-.2.23-.31,0-.25-.43-.61-.99-.68-1.07-1.42-1.53-2.59-1.53-1.42,0-2.44.87-2.44,2.04,0,1.34.87,1.68,2.43,2.18,1.16.36,2.08.66,2.66,1.19.72.65,1.1,1.59,1.06,2.56,0,2.06-1.48,3.45-4.06,3.45-1.63,0-2.79-.53-2.9-1.12l-.36-1.84Z"/><path d="M116.4,51.2h-2.84c-.25,0-.37-.06-.37-.19,0-.1.04-.19.09-.27l1.6-3.43c.06-.12.13-.16.19-.16s.13.06.18.18l1.35,3.47c.04.08.06.16.08.25,0,.09-.1.15-.28.15M106.06,51.2h-2.84c-.25,0-.37-.06-.37-.19,0-.1.04-.19.09-.27l1.6-3.43c.06-.12.13-.16.19-.16s.13.06.18.18l1.35,3.47c.04.08.06.16.08.25,0,.09-.1.15-.28.15M112.48,55.77c.16,0,.24-.04.24-.18,0-.25-.28-.16-.53-.27-.37-.15-.55-.39-.55-.65.02-.26.1-.52.22-.76l.73-1.57c.16-.36.27-.55.67-.55h3.34c.39,0,.51.12.64.46l.77,2c.08.18.13.37.15.56,0,.27-.16.4-.49.52-.21.08-.34.09-.34.27,0,.09.07.17.16.18.46-.06.92-.1,1.38-.1.92,0,1.5.09,1.71.09.13,0,.19-.04.19-.18,0-.25-.34-.16-.68-.31-.48-.19-.74-.67-1.02-1.4l-3.37-8.58c-.06-.15-.09-.24-.19-.24-.12,0-.16.06-.24.21l-4.12,8.79c-.18.42-.44.81-.77,1.13-.17.17-.42.21-.63.09-.47-.2-.74-.67-1.02-1.4l-3.37-8.58c-.06-.15-.09-.24-.19-.24-.12,0-.16.06-.24.21l-4.11,8.79c-.17.43-.43.82-.77,1.13-.25.19-.59.18-.59.39,0,.1.08.18.18.19.28-.04.55-.07.83-.09.83,0,1.41.09,1.69.09.16,0,.24-.04.24-.18,0-.25-.28-.16-.53-.27-.37-.15-.55-.39-.55-.65.02-.27.1-.52.22-.76l.73-1.57c.16-.36.27-.55.67-.55h3.34c.39,0,.5.12.64.46l.77,2c.08.18.13.37.15.56,0,.27-.16.4-.49.52-.21.08-.34.09-.34.27,0,.08.08.18.16.18.95-.05,1.82-.11,2.75-.11s2.26.09,2.59.1"/><path d="M124.26,46.4c0-.28-.1-.37-.42-.37h-2.06c-.55,0-.86.27-1.11.85-.16.4-.13.73-.37.73-.12,0-.15-.06-.15-.19,0-.08,0-.17.01-.25l.16-1.5c.03-.3.13-.31.49-.31.33,0,.91.09,1.75.09h4.63c.94,0,1.57-.09,1.9-.09.21,0,.3.07.31.25l.1,1.35v.11c0,.18-.04.28-.18.28-.27,0-.16-.39-.33-.7-.25-.41-.72-.65-1.2-.61h-1.93c-.34,0-.46.08-.46.39v7.53c0,.74.03,1.02.56,1.26.49.22.82.1.82.37,0,.15-.1.22-.33.22-.43,0-.99-.1-1.69-.1-.85,0-1.4.13-1.65.13-.18,0-.28-.08-.28-.21,0-.33.48-.21.88-.39.53-.24.53-.56.53-1.35v-7.49Z"/><path d="M135.5,55.97c-3.13,0-5.05-2.02-5.05-5.24-.04-1.51.5-2.98,1.53-4.1.94-.97,2.25-1.49,3.59-1.43.86,0,1.71.18,2.5.53.53.24.83.58,1.04.58.12,0,.24-.13.34-.13.09,0,.13.1.15.3l.15,1.54c.01.1.02.2.01.3,0,.16-.03.25-.16.25-.27,0-.31-.46-.59-.92-.85-1.34-2.08-2.05-3.42-2.05-2.29,0-3.9,1.8-3.9,4.51,0,3.19,1.75,5.33,4.05,5.33,1.09-.01,2.14-.44,2.94-1.19.58-.55.67-1.14.92-1.14.08,0,.13.09.13.21,0,.08-.02.16-.04.24l-.3,1.22c-1.13.82-2.5,1.24-3.89,1.19"/><path d="M142.46,47.32c0-.64-.03-1.02-.46-1.34-.42-.3-.89-.13-.89-.42,0-.18.09-.22.31-.22.28,0,.79.09,1.51.09.55,0,1.09-.03,1.63-.09.15,0,.24.09.24.19,0,.3-.49.21-.85.5-.34.3-.36.67-.36,1.28v2.27c0,.34.06.37.39.37h4.93c.33,0,.4-.03.4-.37v-2.25c0-.64-.03-1.02-.46-1.34-.42-.3-.89-.15-.89-.43,0-.18.09-.21.31-.21.4,0,.95.09,1.65.09.5,0,1-.03,1.5-.09.15,0,.24.09.24.19,0,.3-.49.19-.85.49-.34.3-.36.67-.36,1.28v6.44c0,.67.06,1.08.47,1.4.4.3.88.12.88.43,0,.18-.09.21-.31.21-.48,0-1.01-.09-1.6-.09-.52,0-1.04.03-1.56.09-.15,0-.22-.08-.22-.19,0-.28.43-.22.8-.55.39-.34.4-.71.4-1.31v-2.88c0-.27-.12-.31-.4-.31h-4.93c-.28,0-.39.05-.39.31v2.9c0,.67.06,1.08.47,1.4.4.3.88.12.88.43,0,.18-.09.21-.31.21-.48,0-1.01-.09-1.6-.09-.52,0-1.03.03-1.54.09-.15,0-.24-.08-.24-.19,0-.28.43-.22.8-.55.39-.34.4-.71.4-1.31v-6.43Z"/><path d="M154.57,47.32c0-.64-.03-1.02-.45-1.34-.4-.31-.85-.12-.85-.45,0-.15.09-.19.3-.19.24,0,.74.09,1.49.09.55,0,1.1-.03,1.65-.09.15,0,.24.09.24.19,0,.3-.51.21-.86.5-.34.3-.34.67-.34,1.28v6.44c0,.67.04,1.08.46,1.4.4.3.88.12.88.43,0,.18-.09.21-.31.21-.47,0-.99-.09-1.6-.09-.52,0-1.04.03-1.56.09-.15,0-.24-.08-.24-.19,0-.28.43-.22.8-.55.39-.34.4-.71.4-1.31v-6.43Z"/></g></g></svg>