<?xml version="1.0" encoding="UTF-8"?><svg id="Layer_1" xmlns="http://www.w3.org/2000/svg" width="160" height="100" viewBox="0 0 160 100"><g id="c"><g id="d"><path d="M30.43,44.72c.18,1.67,1.59,2.98,3.32,2.98h0s.01,0,.01.01,0,.01-.01.01h0c-1.84,0-3.33,1.5-3.34,3.34,0,0,0,.01-.01.01s-.01,0-.01-.01c0-1.84-1.5-3.33-3.34-3.34h0s-.01,0-.01-.01,0-.01.01-.01c1.78,0,3.23-1.39,3.33-3.14v-10.66h-14.06v10.82H5.5v14.06h10.82v10.82h14.06v-4.63c-.01-3.39-2.76-6.14-6.15-6.14h0s-.02,0-.02-.02,0-.02.02-.02c3.4,0,6.14-2.75,6.15-6.14,0-.01,0-.02.02-.02s.02,0,.02.02h0c.01,3.36,2.7,6.08,6.05,6.14h4.73v-14.06h-10.77ZM28.75,53.04h0c-1.84,0-3.33,1.5-3.34,3.34,0,0,0,.01-.01.01s-.01,0-.01-.01c0-1.84-1.5-3.33-3.34-3.34,0,0-.01,0-.01-.01s0-.01.01-.01c1.84,0,3.34-1.5,3.34-3.34,0,0,0-.01.01-.01,0,0,0,0,.01.01h0c0,1.84,1.5,3.33,3.34,3.34,0,0,.01,0,.01.01s0,.01-.01.01M38.73,53.04h0c-1.84,0-3.33,1.5-3.34,3.34,0,0,0,.01-.01.01,0,0-.01,0-.01-.01,0-1.84-1.5-3.33-3.34-3.34,0,0-.01,0-.01-.01s0-.01.01-.01c1.84,0,3.34-1.5,3.34-3.34,0,0,0-.01.01-.01s.01,0,.01.01h0c0,1.84,1.5,3.33,3.34,3.34,0,0,.01,0,.01.01s0,.01-.01.01"/><path d="M51.35,55.85h-2.13c-.64,0-.98-.32-.98-.93v-.06c0-.58.35-.88.98-.88h6.37c.65,0,.99.31.99.88v.06c0,.61-.33.93-.99.93h-2.1v6.6c0,.64-.33.97-.94.97h-.31c-.59,0-.88-.33-.88-.97v-6.6Z"/><path d="M57.07,56.44c0-.06.36-.23.77-.23.54,0,1.11.25,1.25,1.21.29-.81.87-1.29,1.73-1.29s1.32.46,1.32,1.19c0,.81-.62,1.1-.65,1.07-.22-.2-.54-.35-.93-.35-1,0-1.44.87-1.44,2.29v2.12c0,.74-.38.97-.9.97h-.21c-.55,0-.93-.21-.93-.97v-6.01h0Z"/><path d="M65.6,62.18c1.02,0,1.73-.67,1.73-1.59v-.41l-.38.02c-1.61.04-2.45.36-2.45,1.13,0,.52.42.86,1.1.86M67.09,59.07h.23c0-.91-.51-1.41-1.45-1.41-.99,0-1.5.54-1.76,1.09,0,.03-1.32.07-1.32-.87,0-.88,1.04-1.76,3.2-1.76s3.34,1.02,3.34,2.92v4.19c0,.1-.38.23-.77.23-.65,0-1.09-.35-1.21-1.11-.51.74-1.41,1.17-2.45,1.17-1.48,0-2.38-.84-2.38-2.04,0-1.63,1.45-2.36,4.55-2.41"/><path d="M69.88,56.81c-.04-.12.49-.61,1.1-.61.49,0,.9.23,1.16,1.04l1.44,4.25,1.48-4.25c.26-.81.68-1.04,1.11-1.04.62,0,1.15.49,1.1.61l-2.54,6.1c-.17.42-.68.54-1.15.54s-.97-.1-1.14-.52l-2.57-6.12h0Z"/><path d="M82.87,59.18c-.04-.98-.67-1.64-1.65-1.64s-1.68.68-1.83,1.64h3.48ZM81.24,56.12c2.09,0,3.52,1.46,3.52,3.54v.15c-.02.36-.12.56-.49.56h-4.89c.15,1.06.96,1.68,2.06,1.68s1.67-.48,2-1.04c.02-.03.99.1.99.91s-1.09,1.62-3.06,1.62c-2.31,0-3.83-1.44-3.83-3.67s1.55-3.75,3.7-3.75"/><path d="M85.82,53.51c0-.07.36-.23.77-.23.61,0,1.27.32,1.27,1.64v7.53c0,.74-.38.97-.9.97h-.22c-.54,0-.93-.21-.93-.97v-8.93h0Z"/><path d="M91.79,54.89c0-.65.32-.97.91-.97h.29c.62,0,.94.32.94.97v7.55c0,.64-.32.97-.94.97h-.29c-.6,0-.91-.33-.91-.97v-7.55Z"/><path d="M95.27,56.44c0-.06.36-.23.77-.23.52,0,1.09.25,1.23,1.16.49-.73,1.23-1.25,2.34-1.25,1.84,0,2.62,1.31,2.62,2.93v3.39c0,.74-.38.97-.9.97h-.22c-.55,0-.92-.21-.92-.97v-3.09c0-.94-.48-1.52-1.31-1.52-.73,0-1.27.38-1.57.93v3.69c0,.74-.38.97-.9.97h-.21c-.55,0-.93-.21-.93-.97v-6h0Z"/><path d="M103.92,61.14c.49.52,1.29.94,2.34.94.8,0,1.25-.23,1.25-.68,0-.54-.56-.62-1.52-.83-.97-.22-2.5-.54-2.5-2.15,0-1.38,1.16-2.29,2.96-2.29,1.92,0,2.87.69,2.87,1.51,0,.54-.62.91-.67.87-.48-.55-1.25-.94-2.07-.94-.77,0-1.21.25-1.21.69,0,.51.57.58,1.51.8,1,.22,2.61.55,2.61,2.16,0,1.42-1.17,2.29-3.12,2.29-2.07,0-3.07-.73-3.07-1.54,0-.51.58-.87.62-.83"/><path d="M110.5,57.2c0-.74.38-.99.9-.99h.22c.54,0,.93.23.93.99v3.12c0,.94.48,1.52,1.33,1.52.68,0,1.23-.38,1.52-.93v-3.71c0-.74.38-.99.91-.99h.2c.55,0,.93.23.93.99v5.99c0,.07-.35.23-.77.23-.51,0-1.07-.21-1.23-1.11-.49.73-1.22,1.25-2.32,1.25-1.86,0-2.62-1.31-2.62-2.93v-3.42h0Z"/><path d="M118.71,56.44c0-.06.36-.23.77-.23.54,0,1.11.25,1.25,1.21.29-.81.87-1.29,1.73-1.29s1.32.46,1.32,1.19c0,.81-.62,1.1-.65,1.07-.22-.2-.54-.35-.93-.35-1,0-1.44.87-1.44,2.29v2.12c0,.74-.38.97-.9.97h-.21c-.55,0-.93-.21-.93-.97v-6.01h0Z"/><path d="M127.26,62.18c1.02,0,1.73-.67,1.73-1.59v-.41l-.38.02c-1.61.04-2.45.36-2.45,1.13,0,.52.42.86,1.1.86M128.76,59.07h.23c0-.91-.51-1.41-1.45-1.41-.99,0-1.5.54-1.76,1.09,0,.03-1.32.07-1.32-.87,0-.88,1.04-1.76,3.2-1.76s3.34,1.02,3.34,2.92v4.19c0,.1-.38.23-.77.23-.65,0-1.09-.35-1.21-1.11-.51.74-1.41,1.17-2.45,1.17-1.48,0-2.38-.84-2.38-2.04,0-1.63,1.45-2.36,4.55-2.41"/><path d="M132.31,56.42c0-.06.36-.23.77-.23.52,0,1.09.25,1.23,1.16.49-.73,1.23-1.25,2.33-1.25,1.84,0,2.63,1.31,2.63,2.93v3.39c0,.74-.38.97-.9.97h-.22c-.55,0-.92-.21-.92-.97v-3.09c0-.94-.48-1.52-1.31-1.52-.73,0-1.27.38-1.57.93v3.69c0,.74-.38.97-.9.97h-.21c-.55,0-.93-.21-.93-.97v-6.01h0Z"/><path d="M144.07,56.14c2.16,0,3.01,1.23,3.01,1.91,0,.83-1.09.97-1.13.9-.28-.68-.8-1.17-1.8-1.17-1.11,0-1.93.86-1.93,2.04s.81,2.09,1.93,2.09c.97,0,1.52-.49,1.8-1.17.03-.09,1.13.04,1.13.91,0,.67-.9,1.9-3.01,1.9s-3.72-1.54-3.72-3.72,1.57-3.68,3.72-3.68"/><path d="M153.2,59.18c-.04-.98-.67-1.64-1.65-1.64s-1.68.68-1.83,1.64h3.48ZM151.57,56.12c2.09,0,3.52,1.46,3.52,3.54v.15c-.02.36-.12.56-.49.56h-4.89c.15,1.06.96,1.68,2.06,1.68s1.67-.48,2-1.04c.02-.03.99.1.99.91s-1.09,1.62-3.06,1.62c-2.31,0-3.83-1.44-3.83-3.67s1.55-3.75,3.7-3.75"/><path d="M65.2,43.74c0-.74.38-.99.9-.99h.22c.54,0,.93.23.93.99v3.12c0,.94.48,1.52,1.34,1.52.68,0,1.23-.38,1.53-.93v-3.72c0-.74.38-.99.92-.99h.2c.55,0,.93.23.93.99v6c0,.07-.35.23-.77.23-.51,0-1.08-.22-1.23-1.12-.5.73-1.22,1.25-2.32,1.25-1.86,0-2.63-1.31-2.63-2.94v-3.43h0Z"/><path d="M74.34,44.43h-.35c-.58,0-.86-.25-.86-.71v-.13c0-.5.28-.75.86-.75h.35v-.9c0-.67.35-.99.93-.99h.17c.55,0,.92.23.92.99v.9h1.23c.58,0,.83.25.83.73v.12c0,.5-.26.75-.84.75h-1.27v3.02c0,.7.23,1.05.79,1.05.42,0,.7-.2.92-.48.03-.04.49.23.49.8,0,.71-.71,1.29-1.87,1.29-1.57,0-2.3-.83-2.3-2.43v-3.25h0Z"/><path d="M79.54,40.06c0-.07.36-.23.77-.23.61,0,1.28.32,1.28,1.64v2.5c.45-.74,1.18-1.29,2.3-1.29,1.84,0,2.63,1.34,2.63,2.99v3.34c0,.74-.38.97-.9.97h-.22c-.55,0-.93-.22-.93-.97v-3.05c0-.99-.49-1.57-1.29-1.57-.97,0-1.58.64-1.58,1.65v2.96c0,.74-.38.97-.9.97h-.22c-.55,0-.93-.22-.93-.97v-8.94h0Z"/><path d="M92.86,45.74c-.04-.99-.67-1.64-1.66-1.64s-1.69.68-1.83,1.64h3.49ZM91.23,42.67c2.09,0,3.53,1.47,3.53,3.55v.15c-.02.36-.12.57-.5.57h-4.9c.15,1.06.96,1.69,2.06,1.69s1.67-.48,2-1.05c.02-.03.99.1.99.92,0,.77-1.09,1.63-3.07,1.63-2.31,0-3.84-1.44-3.84-3.68,0-2.17,1.56-3.76,3.71-3.76"/><path d="M95.81,42.99c0-.06.36-.23.77-.23.54,0,1.12.25,1.25,1.21.29-.81.87-1.29,1.73-1.29s1.32.46,1.32,1.19c0,.81-.62,1.1-.65,1.08-.22-.2-.54-.35-.93-.35-1,0-1.44.87-1.44,2.3v2.12c0,.74-.38.98-.9.98h-.22c-.55,0-.93-.22-.93-.98,0,0,0-6.01,0-6.01Z"/><path d="M101.87,42.99c0-.06.36-.23.77-.23.52,0,1.09.25,1.23,1.16.49-.73,1.23-1.25,2.34-1.25,1.84,0,2.63,1.31,2.63,2.94v3.4c0,.74-.38.98-.9.98h-.22c-.55,0-.93-.22-.93-.98v-3.09c0-.94-.48-1.52-1.31-1.52-.73,0-1.28.38-1.57.93v3.69c0,.74-.38.98-.9.98h-.22c-.55,0-.93-.22-.93-.98v-6.01h0Z"/><path d="M117.66,40.33c2.5,0,3.62,1.36,3.62,2.12,0,.93-1.21,1.16-1.23,1.09-.46-.81-1.35-1.28-2.3-1.28-1.58,0-2.73,1.19-2.73,2.95s1.16,2.96,2.75,2.96c1.09,0,1.98-.54,2.34-1.42.03-.07,1.28.16,1.28,1.09,0,.8-1.16,2.27-3.75,2.27-2.85,0-4.82-2-4.82-4.88s1.98-4.9,4.85-4.9"/><path d="M122.45,42.99c0-.06.36-.23.77-.23.54,0,1.12.25,1.25,1.21.29-.81.87-1.29,1.73-1.29s1.32.46,1.32,1.19c0,.81-.62,1.1-.65,1.08-.22-.2-.54-.35-.93-.35-1,0-1.44.87-1.44,2.3v2.12c0,.74-.38.98-.9.98h-.22c-.55,0-.93-.22-.93-.98v-6.01h0Z"/><path d="M131.76,48.5c1.13,0,1.98-.88,1.98-2.09s-.83-2.13-1.98-2.13-1.99.88-1.99,2.11.84,2.12,1.99,2.12M131.77,42.67c2.24,0,3.78,1.52,3.78,3.73s-1.54,3.7-3.81,3.7-3.78-1.5-3.78-3.73,1.55-3.7,3.81-3.7"/><path d="M136.85,47.7c.49.52,1.29.94,2.34.94.8,0,1.25-.23,1.25-.68,0-.54-.57-.62-1.53-.83-.97-.22-2.5-.54-2.5-2.15,0-1.38,1.16-2.3,2.96-2.3,1.92,0,2.88.7,2.88,1.51,0,.54-.62.92-.67.87-.48-.55-1.25-.94-2.08-.94-.77,0-1.21.25-1.21.7,0,.51.57.58,1.51.8,1,.22,2.61.55,2.61,2.17,0,1.42-1.18,2.3-3.12,2.3-2.08,0-3.08-.73-3.08-1.54,0-.52.58-.89.62-.84"/><path d="M143.82,47.7c.49.52,1.29.94,2.34.94.8,0,1.25-.23,1.25-.68,0-.54-.57-.62-1.53-.83-.97-.22-2.5-.54-2.5-2.15,0-1.38,1.16-2.3,2.96-2.3,1.92,0,2.88.7,2.88,1.51,0,.54-.62.92-.67.87-.48-.55-1.25-.94-2.08-.94-.77,0-1.21.25-1.21.7,0,.51.57.58,1.51.8,1,.22,2.61.55,2.61,2.17,0,1.42-1.18,2.3-3.12,2.3-2.08,0-3.08-.73-3.08-1.54,0-.52.58-.89.62-.84"/><path d="M49.04,47.14c.57.68,1.64,1.29,2.8,1.29s1.71-.42,1.71-1.15c0-.84-.94-.97-2.05-1.22-1.51-.33-3.05-.92-3.05-2.83,0-1.75,1.41-2.91,3.68-2.91s3.37.92,3.37,1.71c0,.67-.81,1.16-.86,1.12-.55-.65-1.5-1.16-2.5-1.16s-1.63.44-1.63,1.12c0,.81.84.88,2,1.15,1.7.38,3.18,1.09,3.18,2.86,0,1.88-1.36,2.98-3.85,2.98s-3.63-1.03-3.63-1.89c0-.59.74-1.13.82-1.07"/><path d="M60.39,48.5c1.13,0,1.98-.88,1.98-2.09s-.83-2.13-1.98-2.13-1.99.88-1.99,2.11.84,2.12,1.99,2.12M60.41,42.67c2.24,0,3.78,1.52,3.78,3.73s-1.54,3.7-3.81,3.7-3.78-1.5-3.78-3.73,1.55-3.7,3.81-3.7"/></g></g></svg>