<?xml version="1.0" encoding="UTF-8"?><svg id="Layer_1" xmlns="http://www.w3.org/2000/svg" width="160" height="100" viewBox="0 0 160 100"><path d="M27.65,55.44v1.55c0,1.82-.26,2.84-.81,3.42-.43.46-.93.72-1.97.72-1,0-1.72-.59-2.09-1.19-.78-1.28-.94-3.55-.94-8.44,0-4.89.21-7.4,1.01-8.67.31-.49,1-.99,2-.99s1.6.44,1.97.87c.49.56.79,1.95.79,3.99,0,.4,0,.69,0,.89h4.03s-.07-2.42-.07-2.42c-.07-2.37-.81-4.4-2.11-5.64-1.18-1.13-2.59-1.73-4.58-1.73-2.51,0-3.99.98-5.1,2.26-1.96,2.26-2.03,6.09-2.04,11.36,0,5.27.08,9.25,2.03,11.51,1.11,1.28,2.58,2.26,5.1,2.26,1.96,0,3.47-.6,4.65-1.69,1.3-1.21,1.96-3.22,2.06-5.56v-2.5s-3.95,0-3.95,0ZM141.65,38.11h-4.1s-10.2,26.78-10.2,26.78h4.06s10.24-26.78,10.24-26.78ZM135.89,57.26c1.11,2.39,1.96,4.89,2.23,7.63h4.12c-.45-4.51-2.46-8.37-4.63-12.16l-1.73,4.53ZM131.65,49.49c-1.99-3.55-3.77-7.18-4.18-11.39h4.12c.24,2.4.92,4.61,1.84,6.73l-1.77,4.65ZM95.57,41.91h4.4s0,22.98,0,22.98h4.14s0-22.98,0-22.98h4.43s0-3.8,0-3.8h-12.97s0,3.8,0,3.8ZM116.78,41.91h6.91s0-3.8,0-3.8h-11.04s0,26.78,0,26.78h11.04s0-3.8,0-3.8h-6.91s0-7.79,0-7.79h6.94s0-3.8,0-3.8h-6.94s0-7.6,0-7.6ZM87.48,64.89h4.14s0-26.78,0-26.78h-4.14s0,26.78,0,26.78ZM72.51,64.89h4.14s0-11.58,0-11.58l6.87-.06v-3.8s-6.87.06-6.87.06v-7.6s6.91,0,6.91,0v-3.8s-11.04,0-11.04,0v26.78ZM63.64,53.28l-6.17-15.17h-3.69s0,26.78,0,26.78h4.14s0-15.33,0-15.33l6.2,15.33h3.66s0-26.78,0-26.78h-4.14s0,15.17,0,15.17ZM45.67,51.5c0-4.89-.26-7.6-1.04-8.88-.37-.6-1-1.01-1.99-1.01-1,0-1.59.41-1.96,1.01-.78,1.28-1.19,3.84-1.19,8.73,0,4.89.42,7.32,1.19,8.6.37.6.96,1.25,1.96,1.25s1.63-.65,1.99-1.25c.78-1.28,1.04-3.56,1.04-8.46M47.74,40.06c1.96,2.26,2.09,6.17,2.09,11.43s-.13,9.18-2.09,11.43c-1.11,1.28-2.59,2.26-5.1,2.26s-3.99-.98-5.1-2.26c-1.96-2.26-2.11-6.17-2.11-11.43,0-5.27.15-9.18,2.11-11.43,1.11-1.28,2.59-2.26,5.1-2.26,2.51,0,3.99.98,5.1,2.26"/></svg>